<?xml version="1.0" encoding="UTF-8"?>
<!DOCTYPE svg PUBLIC "-//W3C//DTD SVG 1.0//EN" "http://www.w3.org/TR/2001/REC-SVG-20010904/DTD/svg10.dtd">
<!-- Creator: CorelDRAW 2018 (64-Bit) -->
<svg xmlns="http://www.w3.org/2000/svg" xml:space="preserve" width="300px" height="269px" version="1.0" style="shape-rendering:geometricPrecision; text-rendering:geometricPrecision; image-rendering:optimizeQuality; fill-rule:evenodd; clip-rule:evenodd"
viewBox="0 0 1501.01 1347.01"
 xmlns:xlink="http://www.w3.org/1999/xlink">
 <defs>
  <style type="text/css">
   <![CDATA[
    .fil0 {fill:#0D4DB1}
    .fil1 {fill:#0D4DB1;fill-rule:nonzero}
   ]]>
  </style>
 </defs>
 <g id="Слой_x0020_1">
  <metadata id="CorelCorpID_0Corel-Layer"/>
  <g id="_2477540807504">
   <path class="fil0" d="M653.56 1173.6l173.59 0 0 173.41 -173.59 0 0 -173.41zm35.02 27.21c-0.53,4.48 -0.16,35.84 -0.16,43.19 -0.01,15.73 -0.67,24.16 4.98,37.77 7.18,17.27 23.78,38.66 46.71,38.66 22.22,0 40.18,-21.62 46.83,-38.55 5.73,-14.58 5.12,-21.21 5.13,-37.88 0,-13.38 0.84,-29.8 -0.11,-42.81 -2.07,1.49 -7.18,9.57 -9.22,12.36 -3.57,4.89 -7.42,9.01 -7.42,13.52 0.04,13.93 0.03,27.86 0.03,41.78 -0.01,14.1 0.81,25.98 -7.17,35.04 -16.37,18.58 -42.84,17.18 -56.69,-0.95 -7.64,-9.99 -6.34,-21.35 -6.3,-35.58 0.04,-13.32 0.85,-28.72 0.14,-41.78 -0.15,-2.71 -2.25,-4.76 -3.68,-6.74 -1.51,-2.09 -2.81,-3.88 -4.39,-6.06 -3.06,-4.2 -5.7,-8.03 -8.68,-11.97zm18.86 23.11l26.03 0.09c0,12.62 0,25 0,37.39 -0.01,6.13 0.06,12.26 0.05,18.39 0,6.17 0.02,12.43 6.59,12.56 7.66,0.14 6.97,-7.97 6.96,-11.56 0,-6.3 0,-12.6 0.01,-18.89 0,-12.64 -0.06,-25.29 -0.07,-37.93 5.49,0 10.98,0 16.47,0 12.85,0 7.19,3.04 19.47,-13.69 1.76,-2.4 5.8,-7.7 6.62,-9.81 -4.06,-0.16 -41.03,-0.7 -43.73,0.52 -2.95,1.34 -4.92,4.92 -5.5,9.55 -1.75,-12.89 -11.81,-10.11 -19.11,-10.11 -9.96,0 -20.22,-0.24 -30.14,0.03 0.77,2.27 13.92,19.82 16.35,23.46z"/>
   <path class="fil0" d="M89.24 755.12c41.1,278.56 256.66,500.3 532.12,550.59l0 -21.69c-263.66,-49.83 -469.87,-262.14 -510.58,-528.9l-21.54 0zm23.29 -204.52c51.15,-300.5 312.75,-529.29 627.82,-529.29 315.08,0 576.67,228.79 627.82,529.29l21.61 0c-51.38,-312.33 -322.56,-550.6 -649.43,-550.6 -326.87,0 -598.05,238.27 -649.43,550.6l21.61 0zm1257.4 204.52c-40.72,266.76 -246.93,479.07 -510.59,528.9l0 21.69c275.46,-50.29 491.03,-272.03 532.13,-550.59l-21.54 0z"/>
   <path class="fil0" d="M151.59 755.12c39.73,244.68 228.29,439.44 469.77,488.32l0 -20.05c-230.62,-48.36 -410.56,-234.45 -449.87,-468.27l-19.9 0zm22.04 -204.52c50.65,-266.89 285.1,-468.7 566.72,-468.7 281.63,0 516.07,201.81 566.73,468.7l19.98 0c-50.91,-277.8 -294.21,-488.33 -586.71,-488.33 -292.5,0 -535.8,210.53 -586.71,488.33l19.99 0zm1135.58 204.52c-39.31,233.82 -219.25,419.9 -449.87,468.27l0 20.05c241.49,-48.88 430.05,-243.64 469.77,-488.32l-19.9 0z"/>
   <path class="fil1" d="M29.47 612.72l0 80.27 -11.35 0 0 -70.29 -18.12 0 0 -9.98 29.47 0zm43.58 -0.92c10.78,0 19.09,3.48 24.94,10.44 5.85,6.95 8.77,16.82 8.77,29.59 0,8.94 -1.59,16.57 -4.76,22.87 -3.17,6.31 -7.6,11.09 -13.3,14.34 -5.69,3.25 -12.33,4.87 -19.9,4.87 -3.89,0 -7.56,-0.4 -11,-1.2 -3.45,-0.81 -6.43,-1.97 -8.95,-3.5l4.36 -8.95c3.9,2.53 9.06,3.79 15.48,3.79 8.33,0 14.85,-2.58 19.55,-7.74 4.7,-5.16 7.05,-12.67 7.05,-22.54l0 -2.86c-2.29,3.44 -5.46,6.06 -9.51,7.85 -4.06,1.8 -8.61,2.7 -13.65,2.7 -5.27,0 -10,-1 -14.16,-2.98 -4.17,-1.99 -7.42,-4.84 -9.75,-8.55 -2.33,-3.71 -3.5,-7.97 -3.5,-12.78 0,-5.05 1.24,-9.48 3.73,-13.31 2.48,-3.82 5.87,-6.78 10.15,-8.88 4.28,-2.1 9.1,-3.16 14.45,-3.16zm1.03 40.37c3.59,0 6.8,-0.69 9.63,-2.07 2.83,-1.37 5.03,-3.24 6.6,-5.62 1.56,-2.36 2.35,-5 2.35,-7.91 0,-2.83 -0.75,-5.41 -2.24,-7.74 -1.49,-2.33 -3.67,-4.2 -6.54,-5.62 -2.86,-1.41 -6.32,-2.12 -10.37,-2.12 -5.28,0 -9.54,1.42 -12.79,4.25 -3.25,2.82 -4.87,6.61 -4.87,11.35 0,4.74 1.64,8.5 4.93,11.29 3.28,2.79 7.72,4.19 13.3,4.19zm73.28 -5.73c7.87,0.76 13.87,3.19 18,7.28 4.13,4.09 6.19,9.3 6.19,15.65 0,4.59 -1.14,8.73 -3.44,12.44 -2.29,3.71 -5.71,6.65 -10.26,8.83 -4.55,2.18 -10.11,3.27 -16.69,3.27 -5.73,0 -11.23,-0.86 -16.51,-2.58 -5.28,-1.72 -9.6,-4.11 -12.96,-7.17l5.28 -9.06c2.75,2.6 6.27,4.69 10.55,6.25 4.28,1.57 8.83,2.36 13.64,2.36 5.97,0 10.61,-1.27 13.94,-3.79 3.32,-2.52 4.98,-6 4.98,-10.43 0,-4.44 -1.64,-7.88 -4.93,-10.33 -3.28,-2.44 -8.25,-3.67 -14.91,-3.67l-6.42 0 0 -8.02 20.19 -24.77 -38.65 0 0 -9.98 52.98 0 0 7.8 -20.98 25.92zm67.65 47.47c-6.34,0 -11.98,-1.62 -16.91,-4.87 -4.93,-3.25 -8.81,-7.97 -11.64,-14.16 -2.83,-6.2 -4.24,-13.54 -4.24,-22.02 0,-8.49 1.41,-15.83 4.24,-22.02 2.83,-6.19 6.71,-10.91 11.64,-14.16 4.93,-3.25 10.57,-4.88 16.91,-4.88 6.27,0 11.87,1.63 16.8,4.88 4.93,3.25 8.81,7.97 11.64,14.16 2.83,6.19 4.24,13.53 4.24,22.02 0,8.48 -1.41,15.82 -4.24,22.02 -2.83,6.19 -6.71,10.91 -11.64,14.16 -4.93,3.25 -10.53,4.87 -16.8,4.87zm0 -10.2c6.42,0 11.57,-2.64 15.43,-7.92 3.86,-5.27 5.79,-12.92 5.79,-22.93 0,-10.02 -1.93,-17.66 -5.79,-22.94 -3.86,-5.27 -9.01,-7.91 -15.43,-7.91 -6.5,0 -11.67,2.64 -15.53,7.91 -3.87,5.28 -5.8,12.92 -5.8,22.94 0,10.01 1.93,17.66 5.8,22.93 3.86,5.28 9.03,7.92 15.53,7.92z"/>
   <path class="fil1" d="M1293.68 683.02l0 9.97 -57.68 0 0 -7.8 32.68 -31.53c3.98,-3.82 6.65,-7.13 8.03,-9.92 1.38,-2.79 2.06,-5.6 2.06,-8.43 0,-4.2 -1.47,-7.47 -4.41,-9.8 -2.95,-2.34 -7.17,-3.5 -12.67,-3.5 -8.87,0 -15.71,2.9 -20.53,8.71l-7.8 -6.76c3.14,-3.82 7.24,-6.81 12.33,-8.95 5.08,-2.14 10.76,-3.21 17.03,-3.21 8.41,0 15.1,2.01 20.07,6.02 4.97,4.02 7.45,9.46 7.45,16.35 0,4.28 -0.92,8.33 -2.75,12.15 -1.84,3.82 -5.31,8.18 -10.44,13.07l-24.54 23.63 41.17 0zm41.86 10.89c-6.35,0 -11.99,-1.62 -16.92,-4.87 -4.93,-3.25 -8.81,-7.97 -11.64,-14.16 -2.83,-6.2 -4.24,-13.54 -4.24,-22.02 0,-8.49 1.41,-15.83 4.24,-22.02 2.83,-6.19 6.71,-10.91 11.64,-14.16 4.93,-3.25 10.57,-4.88 16.92,-4.88 6.26,0 11.87,1.63 16.8,4.88 4.93,3.25 8.81,7.97 11.64,14.16 2.82,6.19 4.24,13.53 4.24,22.02 0,8.48 -1.42,15.82 -4.24,22.02 -2.83,6.19 -6.71,10.91 -11.64,14.16 -4.93,3.25 -10.54,4.87 -16.8,4.87zm0 -10.2c6.42,0 11.56,-2.64 15.42,-7.92 3.86,-5.27 5.79,-12.92 5.79,-22.93 0,-10.02 -1.93,-17.66 -5.79,-22.94 -3.86,-5.27 -9,-7.91 -15.42,-7.91 -6.5,0 -11.68,2.64 -15.54,7.91 -3.86,5.28 -5.79,12.92 -5.79,22.94 0,10.01 1.93,17.66 5.79,22.93 3.86,5.28 9.04,7.92 15.54,7.92zm99.76 -0.69l0 9.97 -57.68 0 0 -7.8 32.68 -31.53c3.98,-3.82 6.65,-7.13 8.03,-9.92 1.38,-2.79 2.06,-5.6 2.06,-8.43 0,-4.2 -1.47,-7.47 -4.41,-9.8 -2.94,-2.34 -7.17,-3.5 -12.67,-3.5 -8.87,0 -15.71,2.9 -20.53,8.71l-7.8 -6.76c3.14,-3.82 7.25,-6.81 12.33,-8.95 5.08,-2.14 10.76,-3.21 17.03,-3.21 8.41,0 15.1,2.01 20.07,6.02 4.97,4.02 7.45,9.46 7.45,16.35 0,4.28 -0.92,8.33 -2.75,12.15 -1.83,3.82 -5.31,8.18 -10.43,13.07l-24.55 23.63 41.17 0zm32.34 -38.31c11.47,0 19.9,2.17 25.29,6.48 5.39,4.32 8.08,10.23 8.08,17.72 0,4.74 -1.13,9 -3.38,12.79 -2.26,3.78 -5.66,6.76 -10.21,8.94 -4.55,2.18 -10.15,3.27 -16.8,3.27 -5.66,0 -11.12,-0.86 -16.4,-2.58 -5.27,-1.72 -9.63,-4.11 -13.07,-7.17l5.28 -9.06c2.75,2.6 6.27,4.69 10.55,6.25 4.28,1.57 8.79,2.36 13.53,2.36 6.04,0 10.72,-1.29 14.04,-3.85 3.33,-2.56 4.99,-6.06 4.99,-10.49 0,-4.82 -1.83,-8.47 -5.5,-10.95 -3.67,-2.49 -9.94,-3.73 -18.81,-3.73l-18.23 0 4.24 -41.97 45.3 0 0 9.98 -35.67 0 -2.17 22.01 8.94 0z"/>
   <path class="fil1" d="M255.42 454.61l4.76 -10.44 40.58 18.49 -26.59 -49.2 4.5 -9.87 57.16 26.04 -4.76 10.45 -40.5 -18.45 26.51 49.15 -4.51 9.88 -57.15 -26.05zm51.48 -95.29c2.93,-4.59 6.25,-8.09 9.94,-10.52 3.69,-2.43 7.53,-3.65 11.51,-3.65 3.98,0 7.91,1.24 11.79,3.72 3.82,2.46 6.58,5.5 8.26,9.14 1.68,3.64 2.19,7.63 1.52,12 -0.67,4.37 -2.47,8.85 -5.41,13.43l-7.65 11.94 15.25 9.78 -6.29 9.81 -52.87 -33.9 13.95 -21.75zm29.01 19.24c2.75,-4.28 3.92,-8.11 3.53,-11.49 -0.39,-3.37 -2.27,-6.14 -5.65,-8.3 -3.37,-2.17 -6.68,-2.73 -9.91,-1.67 -3.23,1.05 -6.22,3.72 -8.96,8l-7.37 11.48 21 13.46 7.36 -11.48zm41.49 -50.46l-7.62 8.82 20.03 17.31 -7.51 8.69 -47.52 -41.07 7.51 -8.68 19.89 17.18 7.86 -9.09 -8.1 -30.84 8.09 -9.37 9 36.11 39.05 4.34 -8.62 9.99 -32.06 -3.39zm47 -94.31l13.11 56.05c1.17,4.95 1.26,9.36 0.25,13.23 -1,3.89 -2.96,7.11 -5.88,9.69 -2.33,2.05 -5.07,3.6 -8.23,4.63l-3.91 -8.76c2.36,-1.04 4.14,-2.09 5.35,-3.16 2.82,-2.5 3.87,-6.01 3.13,-10.55l-0.26 -1.8 -49.77 -18.54 9.35 -8.25 38.33 15.35 -10.08 -40.3 8.61 -7.59zm58.92 -26.17l-17.5 11.27 28.69 44.5 -9.73 6.27 -28.68 -44.49 -17.42 11.22 -5.35 -8.29 44.64 -28.78 5.35 8.3zm63.11 28.29c-5.78,2.61 -11.56,3.7 -17.37,3.27 -5.81,-0.43 -11.05,-2.28 -15.71,-5.55 -4.66,-3.28 -8.26,-7.72 -10.8,-13.34 -2.54,-5.61 -3.48,-11.26 -2.83,-16.93 0.65,-5.68 2.74,-10.84 6.26,-15.48 3.51,-4.64 8.15,-8.27 13.93,-10.88 4.69,-2.11 9.34,-3.23 13.95,-3.34 4.61,-0.12 8.95,0.78 13.02,2.67l-3.94 9.57c-6.17,-2.6 -12.27,-2.53 -18.33,0.2 -3.92,1.78 -7.05,4.22 -9.38,7.34 -2.33,3.12 -3.68,6.61 -4.04,10.45 -0.37,3.84 0.32,7.69 2.08,11.56 1.75,3.87 4.18,6.94 7.3,9.21 3.13,2.25 6.63,3.55 10.51,3.86 3.88,0.31 7.79,-0.42 11.71,-2.19 6.05,-2.74 10.13,-7.3 12.23,-13.7l9.82 3.45c-1.27,4.31 -3.48,8.16 -6.64,11.56 -3.16,3.39 -7.08,6.15 -11.77,8.27zm45.93 -47.18l-11.02 3.79 8.61 25.03 -10.86 3.74 -20.43 -59.39 10.86 -3.74 8.55 24.86 11.37 -3.91 8.5 -30.72 11.71 -4.03 -10.39 35.74 31.58 23.39 -12.47 4.29 -26.01 -19.05zm36.05 -47.64l11.32 -1.97 7.62 43.94 25.62 -49.7 10.69 -1.86 10.74 61.88 -11.31 1.97 -7.61 -43.85 -25.63 49.62 -10.7 1.85 -10.74 -61.88zm82.49 -11l11.49 -0.23 0.9 44.58 32.82 -45.27 10.85 -0.22 1.28 62.8 -11.48 0.23 -0.91 -44.49 -32.82 45.17 -10.85 0.22 -1.28 -62.79zm27.82 -4.78c-5.39,0.11 -9.47,-0.92 -12.23,-3.07 -2.77,-2.16 -4.22,-5.36 -4.37,-9.61l8.17 -0.16c0.1,2.21 0.85,3.9 2.25,5.07 1.4,1.17 3.42,1.72 6.05,1.67 2.57,-0.05 4.58,-0.69 6.02,-1.92 1.44,-1.22 2.17,-2.94 2.18,-5.16l8.08 -0.16c0.02,4.19 -1.33,7.43 -4.07,9.73 -2.74,2.3 -6.77,3.5 -12.08,3.61zm167.44 30.81l-17.76 60.25 -11.02 -3.25 14.97 -50.78 -31.24 -9.21 -14.97 50.78 -11.01 -3.25 17.76 -60.24 53.27 15.7zm25.19 78.59c-5.82,-2.65 -10.5,-6.31 -14.03,-10.97 -3.52,-4.66 -5.6,-9.85 -6.22,-15.56 -0.62,-5.71 0.33,-11.33 2.86,-16.88 2.53,-5.56 6.15,-9.97 10.86,-13.25 4.72,-3.27 9.99,-5.11 15.83,-5.51 5.83,-0.39 11.66,0.73 17.49,3.39 5.82,2.65 10.49,6.31 14.02,10.97 3.53,4.66 5.61,9.84 6.25,15.52 0.63,5.68 -0.33,11.32 -2.88,16.92 -2.56,5.61 -6.19,10.04 -10.89,13.29 -4.7,3.25 -9.97,5.07 -15.8,5.46 -5.84,0.41 -11.66,-0.73 -17.49,-3.38zm4.24 -9.31c3.81,1.74 7.63,2.45 11.46,2.12 3.83,-0.33 7.32,-1.63 10.46,-3.91 3.14,-2.29 5.58,-5.33 7.32,-9.14 1.73,-3.81 2.43,-7.65 2.09,-11.52 -0.34,-3.87 -1.64,-7.35 -3.91,-10.46 -2.27,-3.1 -5.31,-5.52 -9.11,-7.25 -3.82,-1.74 -7.64,-2.45 -11.47,-2.12 -3.83,0.32 -7.31,1.63 -10.46,3.91 -3.14,2.28 -5.58,5.33 -7.31,9.14 -1.74,3.81 -2.43,7.65 -2.1,11.52 0.34,3.87 1.65,7.35 3.92,10.46 2.26,3.1 5.3,5.52 9.11,7.25zm115.15 4.69l-33.69 53.01 -9.69 -6.16 28.39 -44.68 -20.9 -13.28 -8.87 12.96c-4.97,7.26 -9.41,12.9 -13.3,16.91 -3.89,4.01 -7.66,6.53 -11.31,7.59 -3.64,1.05 -7.33,0.39 -11.07,-1.99 -1.31,-0.83 -2.94,-2.22 -4.89,-4.17l6.12 -8.13c0.53,0.62 1.21,1.21 2.07,1.75 3.08,1.96 6.43,1.51 10.04,-1.32 3.62,-2.85 8.08,-8.11 13.39,-15.79l14.71 -21.48 39 24.78zm23.7 18.5l8.33 7.91 -30.71 32.34 55.17 -9.11 7.88 7.47 -43.25 45.55 -8.32 -7.9 30.63 -32.28 -55.1 9.05 -7.87 -7.48 43.24 -45.55zm79.7 100.16l-12.77 -16.43 -41.8 32.47 -7.1 -9.14 41.8 -32.47 -12.71 -16.37 7.79 -6.06 32.58 41.95 -7.79 6.05zm-2.13 74.9l-8.22 5.3 -25.52 -39.6 52.78 -34.02 24.85 38.53 -8.23 5.3 -18.52 -28.73 -13.72 8.84 16.43 25.5 -8.07 5.19 -16.43 -25.48 -14.56 9.38 19.21 29.79zm57.74 -2.97l-13.04 22.13 25.23 4.86 5.61 12.42 -36.15 -6.8 -20.39 34.21 -5.69 -12.59 14.14 -24.3 -27.54 -5.38 -5.54 -12.27 38.7 7.43 19.13 -31.97 5.54 12.26z"/>
   <g>
    <g>
     <path class="fil0" d="M447.54 450.46c59.15,-3.56 90.01,35.51 104.34,81.7 15.92,51.29 12.27,111.93 1.95,164.78 -9.26,47.36 -29,99.14 -51.17,133.7 -16.46,25.66 -41.49,56.2 -68.17,70.72 -4.88,2.65 -10.36,5.44 -15.83,7.66 -4.19,1.69 -13.1,3.82 -15.84,6.08 67.65,6.05 135.04,-8.79 190.27,-43.19 8.65,-5.39 16.02,-10.74 23.35,-16.19 8.21,-6.09 34.05,-29.9 40.43,-37.48 2.97,-3.54 6.06,-7.58 9.11,-11.27 40.55,-49.1 68.04,-117.94 68.22,-185.36 0.3,-116.65 -76.32,-191.13 -192.73,-191.02 -20.69,0.02 -35.08,1.04 -55.2,5.46 -7.88,1.73 -35.5,9.65 -38.73,14.41z"/>
     <path class="fil0" d="M427.49 459.12c-22.95,7.37 -52.49,34.99 -65.46,54.64 -16.73,25.35 -28.21,53.82 -25.23,92.64 5.49,71.64 66.98,115.19 131.3,101.06 76.39,-16.78 91.3,-104.72 58.43,-147.82 -40.48,-53.09 -93.85,-49.78 -113.27,-66.22 -17.27,-14.62 9.71,-28.51 14.23,-34.3z"/>
    </g>
    <g>
     <path class="fil0" d="M960.31 912.95c14.83,-1.57 43.27,-13.83 55.8,-19.68 31.57,-14.74 62.98,-38.83 79.76,-69.81 10.1,-18.64 15.33,-38.21 15.27,-62.61 -0.18,-66.74 -40.85,-110.78 -84.47,-132.26 -69.18,-34.05 -171.83,-25.7 -254.93,-26.73 1.4,3.17 23.24,22.18 27.36,25.68 3.54,3.02 5.84,5.91 9.23,8.88l28.25 25.23c17.02,14.49 38.6,35.89 56.66,51.24l65.88 60.11c27.31,23.67 48.13,62.09 35.3,100.68 -4.25,12.77 -12.82,24.06 -22.85,31.67 -5.13,3.88 -8.56,4.36 -11.26,7.6z"/>
     <path class="fil0" d="M830.28 464.71c-6.46,7.86 -13.22,19.84 -18.66,28.58l-45.93 72.62c-5.56,8.36 -4.96,7.37 -4.77,19.93 10.4,1.36 105.76,0.26 124.91,0.26 74.36,0 151.38,13.13 193.98,-56.47 18.12,-29.6 24,-61.76 23.07,-102.57 -3.91,4.01 -2.72,6.67 -8.18,11.72 -27.82,25.63 -73.07,25.29 -109.51,26 -37.86,0.74 -126.55,-2.56 -154.91,-0.07z"/>
     <path class="fil0" d="M899.85 915.75c-55.79,0.74 -24.87,-25.57 -5.01,-47.57 39.42,-43.64 27.07,-111.56 -24.5,-138.83 -91.73,-48.5 -177.22,51.5 -122.69,135.49 12.77,19.68 31.87,36.53 58.64,46.07 18.89,6.72 75.45,13.75 93.56,4.84z"/>
    </g>
   </g>
  </g>
 </g>
</svg>
