<?xml version="1.0" encoding="UTF-8"?>
<!DOCTYPE svg PUBLIC "-//W3C//DTD SVG 1.0//EN" "http://www.w3.org/TR/2001/REC-SVG-20010904/DTD/svg10.dtd">
<!-- Creator: CorelDRAW 2018 (64-Bit) -->
<svg xmlns="http://www.w3.org/2000/svg" xml:space="preserve" width="50px" height="44px" version="1.0" style="shape-rendering:geometricPrecision; text-rendering:geometricPrecision; image-rendering:optimizeQuality; fill-rule:evenodd; clip-rule:evenodd"
viewBox="0 0 25.76 22.74"
 xmlns:xlink="http://www.w3.org/1999/xlink">
 <defs>
  <style type="text/css">
   <![CDATA[
    .fil3 {fill:#2B2A29}
    .fil1 {fill:#2B2A29;fill-opacity:0.400000}
    .fil0 {fill:#2B2A29;fill-opacity:0.600000}
    .fil2 {fill:#2B2A29;fill-opacity:0.701961}
   ]]>
  </style>
 </defs>
 <g id="Layer_x0020_1">
  <metadata id="CorelCorpID_0Corel-Layer"/>
  <path class="fil0" d="M11.66 14.37c-0.03,-0.25 -0.01,-0.64 -0.01,-0.9 0,-1.65 -0.02,-13.39 0.01,-13.46 0.07,0 0.03,-0.02 0.05,0.02l0 -0.03c-0.03,0 -0.04,0 -0.06,0 -0.04,0.01 -0.05,0.02 -0.09,0.04l-0.06 0.03c-0.02,0.01 -0.02,0 -0.04,0.02l-0.08 0.04c-0.01,0.01 -0.02,0 -0.04,0.01 -0.02,0 0,0 -0.02,0 -0.02,0.01 -0.02,0.01 -0.03,0.01l-0.11 0.06c-0.02,0.01 -0.03,0.01 -0.05,0.01 -0.04,0.02 -0.06,0.06 -0.1,0.07l-0.29 0.13c-0.05,0.02 -0.06,0.01 -0.11,0.05 -0.03,0.02 -0.01,0.01 -0.04,0.03 0,0 -0.01,0 -0.01,0l-0.22 0.09c-0.05,0.02 -0.13,0.05 -0.17,0.08 -0.06,0.05 0.01,0.02 -0.07,0.04l-0.26 0.11c0,0 -0.01,0 -0.01,0.01l-0.02 0.01c-0.08,0.04 -0.16,0.05 -0.23,0.1 -0.01,0.01 0.01,0 -0.03,0.03 -0.04,0.03 -0.06,0.01 -0.11,0.03l-0.07 0.04c0,0 0,0 0,0l-0.08 0.02c-0.06,0.02 -0.03,0.06 -0.14,0.09l-0.07 0.03c0,0 0,0.01 -0.01,0.01 -0.03,0.01 -0.05,0 -0.1,0.03 0,0 0,0 0,0l-0.08 0.05c-0.08,0.03 0.03,-0.01 -0.02,0.01 -0.03,0.01 -0.02,0 -0.03,0.01l-0.23 0.11c-0.02,0.01 -0.02,0.01 -0.04,0.01l-0.03 0.01c-0.03,0.01 0,0 -0.02,0.01l-0.05 0.03c-0.09,0.05 -0.04,0.01 -0.13,0.07 -0.03,0.03 0,0.01 -0.05,0.03 -0.04,0.01 -0.09,0.01 -0.13,0.03l-0.09 0.05c0,0 -0.01,0 -0.01,0 0,0.01 0,0.01 -0.01,0.01 0,0 0,0 0,0.01 -0.06,0.04 -0.08,0.02 -0.14,0.05l-0.05 0.04c-0.05,0.03 -0.11,0.03 -0.16,0.06l-0.33 0.17c-0.01,0 -0.01,0 -0.03,0.01l-0.51 0.23c-0.04,0.01 0.03,-0.01 -0.01,0.01l-0.02 0c-0.08,0.04 -0.11,0.02 -0.16,0.1l-0.21 0.08c-0.02,0.01 -0.01,0 -0.03,0.02 -0.01,0 -0.03,0.01 -0.03,0.01 -0.01,0.78 0,1.57 0,2.35 0,0.19 0,0.39 0,0.58 0,0.05 0,0.1 0.02,0.15 0.01,0.03 -0.01,-0.03 0.01,0.03 0.02,0.09 0.01,4.93 0.01,5.64l0 0.44c0,0.01 -0.01,0.06 0,0.07 0.01,0.04 0.02,0.01 0.03,0.04l0 0.61c0.01,0 0.01,0 0.03,0.01 0.06,0.02 0.13,0.03 0.18,0.06l0.06 0.04c0.03,0.01 0.05,0.01 0.08,0.02 0,0 0,0 0.01,0 0,0.01 0,0.01 0.01,0.01l0.04 0.02c0,0 0.01,0 0.01,0l0.07 0.04c0.07,0.04 0.02,-0.01 0.15,0.07 0.03,0.01 0.09,0.01 0.12,0.02l0.07 0.04c0,0 0.01,0 0.01,0l0.17 0.07c0,0.01 0.01,0.01 0.01,0.01l0.04 0.02c0.01,0 0.03,0 0.04,0.01 0.01,0 0.01,0 0.01,0l0.32 0.12c0.02,0.01 0.01,0.01 0.02,0.01l0.03 0.03c0.08,0.05 0.2,0.04 0.3,0.1l0.23 0.08c0.06,0.02 -0.02,0 0.02,0.01 0,0 0,0 0.01,0l0.05 0.05c0,0 0,0 0,0 0.04,0.02 0.09,0.03 0.13,0.04 0.01,0.01 0.01,0 0.03,0.01l0.03 0.02c0.04,0.01 0.08,0.01 0.11,0.03l0.12 0.04c0.01,0.01 0.02,0.01 0.03,0.01l0.1 0.06c0.02,0 0.05,0 0.07,0.01 0.03,0.01 0.02,0.01 0.04,0.02l0.03 0.02c0.01,0 0.02,0 0.03,0.01l0.13 0.05c0.02,0.01 0.02,0.01 0.04,0.02l0.02 0.01c0.01,0 0.01,0 0.01,0.01 0.05,0.02 0.07,0.01 0.11,0.03 0.05,0.04 0.1,0.03 0.15,0.05 0.05,0.02 0.07,0.05 0.12,0.06l0.5 0.19c0.06,0.02 -0.02,0 0.06,0.02l0.37 0.14c0.04,0.01 0.08,0.07 0.11,0.08 0.05,0 0.07,-0.01 0.11,0.01l0.1 0.04c0,0 0,0 0.01,0l0.05 0.02c0.05,0.03 0.09,0.05 0.16,0.06l0.11 0.05c0.01,0.01 0.02,0.01 0.02,0.01 0,0 0,0.01 0.01,0.01l0.05 0.01c0.07,0.03 0,0.04 0.15,0.04z"/>
  <path class="fil1" d="M13.55 2.43l0 0.64c0.06,-0.01 0.01,0 0.03,-0.02 0,0 0.01,-0.01 0.01,-0.01l0.08 -0.04c0.03,-0.01 0.01,0.01 0.03,-0.02 0.04,-0.06 0.08,-0.05 0.13,-0.11l0.05 -0.05c0.02,-0.01 0.03,-0.01 0.05,-0.02 0.05,-0.03 0.06,-0.06 0.16,-0.11 0.06,-0.03 0.02,-0.02 0.09,-0.05l0 10.41c0.05,0.01 0.06,0 0.08,-0.02 0,0 0.01,-0.01 0.01,-0.01l0.28 -0.21c0.01,0 0.06,-0.02 0.12,-0.07l0.1 -0.08c0,0 0,-0.01 0,-0.01l0.12 -0.08c0.05,-0.02 0.03,-0.04 0.09,-0.07 0.02,-0.01 0.01,0 0.03,-0.01l0.2 -0.16c0,0 0.01,-0.01 0.01,-0.01 0,0 0.01,-0.01 0.01,-0.01 0.08,-0.07 0.01,0.03 0.14,-0.11 0.02,-0.02 0,-0.01 0.03,-0.02 0.16,-0.08 0.05,-0.05 0.16,-0.11 0.04,-0.02 0.06,-0.05 0.1,-0.07l0.22 -0.16c0,-0.01 0,-0.01 0,-0.01l0.03 -0.03c0,0 0,0 0.01,0l0.06 -0.04c0.05,-0.04 0.01,-0.02 0.07,-0.04l0 -7.15 0.04 -0.02c0.03,-0.01 0.02,0 0.04,-0.02 0.05,-0.04 0.06,-0.06 0.11,-0.09 0,0 0.01,0 0.01,0 0,0 0,0 0.01,-0.01l0.03 -0.03c0.01,-0.01 0.01,-0.01 0.02,-0.01 0.02,-0.02 0.03,-0.01 0.05,-0.02 0,0 0,-0.01 0,-0.01 0.01,0 0.01,0 0.01,0 0,0 0.01,-0.01 0.01,-0.01l0.04 -0.05c0.06,-0.02 0.03,0.01 0.09,-0.04 0.04,-0.05 0.1,-0.09 0.16,-0.1 0.01,0 0.01,0.01 0.01,0.01 0,0.01 0,0.01 0,0.01 0.01,0.01 0.01,0.01 0.01,0.02 0.02,0.08 0,0.37 0,0.46 0,0.17 0,0.33 0,0.5l0 7.05c0.05,0 0.07,-0.02 0.1,-0.04l0.27 -0.18c0,-0.01 0,-0.01 0.01,-0.01l0.04 -0.03c0.04,-0.04 0.09,-0.05 0.13,-0.09l0.06 -0.06c0,0 0,0 0,0l0.18 -0.12c0,0 0,0 0.01,0 0,0 0.01,-0.01 0.01,-0.02l0.44 -0.33c0.06,-0.04 0.07,-0.02 0.12,-0.08l0.06 -0.06c0,0 0.01,0 0.01,0l0.11 -0.07c0,-0.01 0,-0.01 0,-0.01l0.32 -0.21 0 -5.98 -0.06 -0.04c0,0 0,-0.01 -0.01,-0.01 -0.03,-0.03 -0.03,-0.05 -0.08,-0.07l-0.07 -0.06c-0.04,-0.03 -0.07,-0.03 -0.13,-0.09 -0.04,-0.03 -0.06,-0.03 -0.11,-0.07l-0.01 -0.01c-0.01,-0.01 -0.01,-0.01 -0.03,-0.02l-0.55 -0.41c-0.01,-0.01 -0.01,-0.01 -0.01,-0.01 -0.01,0 -0.01,0 -0.01,0 0,0 -0.01,0 -0.01,-0.01 0,0 -0.01,0 -0.01,0 0,0 -0.01,0 -0.01,0l-0.06 -0.07c-0.01,0 -0.01,0 -0.01,0l-0.06 -0.05c-0.01,-0.01 -0.01,-0.01 -0.01,-0.01 -0.01,0 -0.01,0 -0.01,0l-0.03 -0.02c-0.01,0 -0.01,-0.01 -0.01,-0.01l-0.08 -0.06c0,0 -0.01,0 -0.01,-0.01l-0.1 -0.06c-0.08,-0.05 -0.05,-0.05 -0.09,-0.09l-0.06 -0.03c-0.05,-0.03 -0.11,-0.08 -0.16,-0.12 -0.05,-0.03 0.01,-0.03 -0.15,-0.02 -0.05,0.12 -0.06,0.06 -0.13,0.12l-0.06 0.04c-0.02,0.02 -0.02,0.01 -0.04,0.03l-0.1 0.08c-0.03,0.02 -0.02,0.01 -0.05,0.02 -0.03,0.01 -0.04,0.03 -0.06,0.06 -0.03,0.04 0,0.01 -0.03,0.04l-0.04 0.03c-0.02,0.01 -0.03,0 -0.06,0 0,-0.09 0.02,-0.58 -0.01,-0.63l-0.08 -0.08c0,0 0,0 0,-0.01l-0.06 -0.03c-0.05,-0.01 -0.06,-0.03 -0.09,-0.07 -0.01,0 -0.01,0 -0.01,-0.01 0,0 -0.01,0 -0.01,0l-0.07 -0.05c-0.09,-0.09 -0.03,-0.04 -0.12,-0.08 -0.01,-0.01 -0.02,-0.02 -0.03,-0.03 0,0 -0.01,-0.01 -0.01,-0.01l-0.28 -0.21c-0.04,-0.03 0.02,0 -0.03,-0.02 -0.02,-0.01 -0.01,0 -0.04,-0.01l-0.2 -0.15c-0.09,-0.06 0,0.02 -0.1,-0.09l-0.01 -0.01c-0.02,-0.02 -0.02,-0.02 -0.03,-0.03l-0.01 -0.01c-0.03,-0.03 -0.06,-0.02 -0.09,-0.04 -0.06,-0.04 -0.01,-0.01 -0.05,-0.06 -0.03,-0.04 -0.05,-0.02 -0.09,-0.05 0,0 0,0 -0.01,-0.01 0,0 -0.02,-0.02 -0.02,-0.02 -0.01,0 -0.01,-0.01 -0.01,-0.01l-0.06 -0.03c-0.01,-0.01 -0.03,-0.03 -0.05,-0.05l-0.07 -0.04c-0.04,-0.02 -0.06,-0.07 -0.1,-0.1 -0.09,-0.04 -0.12,-0.09 -0.17,-0.04l-0.01 0.01c0,0 -0.01,0.01 -0.01,0.01l-0.02 0.03c-0.03,0.02 -0.06,0.02 -0.15,0.1l-0.16 0.11c-0.06,0.02 -0.07,0.07 -0.11,0.09l-0.07 0.04c-0.03,0.03 -0.01,0.03 -0.06,0.03z"/>
  <path class="fil2" d="M11.66 14.37l0.07 -0.05c0.06,-0.03 -0.01,-0.01 0.13,-0.1 0.03,-0.01 0,0.01 0.03,-0.02 0.01,0 0.01,-0.01 0.02,-0.01l0.09 -0.09c0,0 0,0 0.01,-0.01l0.18 -0.13c0.13,-0.08 0.07,-0.1 0.17,-0.13 0.02,-0.01 0,0 0.03,-0.02l0.08 -0.07c0.08,-0.11 0.06,-0.05 0.14,-0.11l0.03 -0.03c0.09,-0.07 0.05,-0.02 0.14,-0.11l0.03 -0.03c0.01,0 0.01,0 0.01,0 0.09,-0.06 0,0.02 0.12,-0.09 0.11,-0.1 0.09,-0.05 0.13,-0.1 0.07,-0.07 -0.01,-0.02 0.1,-0.06 0,-0.01 0,-0.01 0.01,-0.01l0.05 -0.04c0.03,-0.03 0.04,-0.02 0.08,-0.06l0.08 -0.08c0,0 0.03,-0.02 0.03,-0.02 0.02,-0.01 0.02,0 0.04,-0.01l0.08 -0.09 0.01 -9.83 0 -0.64 -0.01 -1.11c-0.05,-0.02 -0.01,0.02 -0.08,-0.05l-0.02 -0.02c0,0 -0.01,0 -0.01,0l-0.06 -0.04c-0.01,0 -0.02,-0.01 -0.03,-0.02 -0.04,-0.04 -0.04,-0.02 -0.09,-0.06l-0.02 -0.02c0,0 -0.01,0 -0.01,0l-0.02 -0.01c-0.07,-0.03 -0.05,-0.03 -0.1,-0.08l-0.01 -0.01c-0.02,-0.02 0,0 -0.03,-0.02l-0.09 -0.06c-0.04,-0.02 -0.04,0 -0.07,-0.04l-0.08 -0.08c-0.07,-0.02 -0.04,-0.01 -0.1,-0.06 -0.01,0 -0.01,-0.01 -0.01,-0.01 0,0 -0.01,0 -0.01,0l-0.06 -0.05c-0.04,-0.02 -0.03,-0.03 -0.07,-0.05 -0.02,-0.01 -0.01,0 -0.03,-0.01 -0.01,0 -0.01,-0.01 -0.01,-0.01l-0.03 -0.03c-0.01,0 -0.01,0 -0.01,-0.01 -0.05,-0.04 -0.04,0 -0.12,-0.08l-0.05 -0.04c0,0 0,-0.01 -0.01,-0.01l-0.02 -0.01c-0.04,-0.04 0,0.01 -0.07,-0.06 -0.04,-0.05 0.01,-0.01 -0.06,-0.04 -0.03,-0.01 -0.01,0.01 -0.04,-0.01 -0.02,-0.02 -0.01,-0.01 -0.03,-0.03 0,0 -0.01,-0.01 -0.01,-0.01 0,0 -0.01,-0.01 -0.01,-0.01l-0.06 -0.04c0,0 0,0 -0.01,-0.01 0,0 0,0 0,0l-0.07 -0.07c-0.07,-0.05 -0.03,0.02 -0.12,-0.08 -0.05,-0.06 -0.04,-0.04 -0.1,-0.05 -0.02,-0.04 0.02,-0.02 -0.05,-0.02 -0.03,0.07 -0.01,11.81 -0.01,13.46 0,0.26 -0.02,0.65 0.01,0.9z"/>
  <path class="fil1" d="M0.6 16.34l0 0.1c0.02,0.01 0.02,0.01 0.05,0.02l0.02 0.01c0.01,0 0,0 0.03,0.01 0.11,0.02 0.21,-0.01 0.33,0.03 0.03,0.01 0.03,0.01 0.07,0.02 0.03,0.14 0.03,0.23 0.03,0.39l0 0.32c0.01,0.07 0.04,0.06 0.01,0.12 -0.03,0.08 -0.01,0.26 -0.01,0.35 0,0.68 0.01,1.35 0,2.03 -0.01,0.1 -0.05,0.17 -0.05,0.17 -0.1,0.12 -0.35,0.06 -0.42,0.08 -0.03,0.01 -0.02,0.02 -0.06,0.04l0 0.11c0.11,0.05 -0.05,0.05 0.31,0.05 0.04,0 0.14,0 0.18,0 0.05,-0.01 0.12,-0.07 0.25,-0.02 0.01,0.01 -0.01,0.01 0.03,0.02l0.54 0c0.02,-0.01 0.05,-0.04 0.07,-0.07 0.02,-0.03 0.02,-0.04 0,-0.07 -0.08,-0.13 -0.29,-0.02 -0.41,-0.09 -0.02,-0.01 -0.02,-0.01 -0.04,-0.02 0,0 0,-0.01 0,-0.01l-0.04 -0.05c-0.02,-0.03 -0.04,-0.02 -0.04,-0.06 -0.03,-0.12 0.02,-0.37 -0.03,-0.48 -0.03,-0.08 -0.01,-0.74 -0.01,-0.86 -0.02,-0.43 -0.01,-0.95 0,-1.39 0.13,-0.01 0.11,0.09 0.19,0.24 0.02,0.02 0.01,0.02 0.03,0.05l0.23 0.45c0,0.01 0,0.01 0,0.01l0.34 0.69c0,0 0,0 0,0l0.1 0.19c0,0 0,0.01 0,0.01 0.01,0 0.01,0.01 0.01,0.01 0,0 0,0 0,0.01l0.01 0.01c0,0 0.01,0.01 0.01,0.01l0.09 0.21c0.02,0.02 0.01,0.04 0.02,0.06 0,0 0,0 0,0.01 0,0 0.01,0 0.01,0l0.03 0.04c0,0 0,0 0,0 0.02,0.03 0.01,0 0.02,0.03 0,0.01 0,0.01 0.01,0.03l0.15 0.29c0,0 0.01,0.01 0.01,0.01l0.38 0.78c0.16,0.01 0.12,-0.06 0.18,-0.19 0.01,-0.03 0.01,-0.03 0.02,-0.06 0.01,-0.03 0,-0.01 0.01,-0.03l0.03 -0.06c0.02,-0.04 0.04,-0.07 0.06,-0.11 0.05,-0.13 0.02,-0.1 0.09,-0.22l0.03 -0.07c0,-0.01 0.01,-0.01 0.01,-0.01 0,0 0,-0.01 0,-0.01l0.84 -1.7c0.02,-0.05 0,0 0.02,-0.05l0.03 -0.05c0.01,-0.02 0.01,-0.04 0.02,-0.06 0,0 0,0 0.01,-0.01l0.15 -0.3c0.04,-0.08 0.04,-0.13 0.07,-0.19l0.03 -0.05c0,0 0.01,-0.01 0.01,-0.01 0.03,-0.04 0.01,-0.03 0.08,-0.03 0.02,0.07 0.03,0.04 0.03,0.17 -0.01,0.29 0.02,1.79 -0.02,1.88 0,0 0,0.01 -0.01,0.01 -0.04,0.11 0.02,0.65 -0.02,0.76 -0.01,0.05 -0.04,0.07 -0.08,0.1l-0.04 0.04 -0.36 0.01c-0.03,0.04 -0.03,0.02 -0.04,0.07 0,0.05 0,0.08 0.01,0.12 0.16,0.02 0.37,0.02 0.54,0.01 0.09,-0.01 -0.02,-0.03 0.3,-0.03 0.11,0 0.37,-0.02 0.45,0 0.08,0.01 0.01,0.03 0.19,0.03 0.02,0 0.09,0 0.11,0 0.03,-0.01 0.03,-0.03 0.06,-0.05l0 -0.1 -0.06 -0.03c-0.01,0 -0.01,-0.01 -0.01,-0.01 -0.1,-0.04 -0.27,0.02 -0.37,-0.02 -0.03,-0.02 0.01,0 -0.02,-0.02 0,0 0,0 -0.01,0l-0.02 -0.02c0,-0.01 -0.01,-0.01 -0.02,-0.02 0,0 -0.02,-0.02 -0.03,-0.02 0,-0.07 0.01,-0.15 -0.01,-0.21 -0.01,0 -0.01,0 -0.01,0 -0.02,-0.06 -0.02,-0.12 -0.02,-0.18 0,-0.14 0,-0.28 0,-0.42l0 -1.71c0,-0.11 -0.01,-0.59 0.01,-0.69 0.02,-0.06 0,0 0.02,-0.03l0.02 -0.1 0.06 -0.05c0.05,-0.03 0.14,-0.03 0.21,-0.03 0.13,0.01 0.08,0 0.14,-0.02 0.05,-0.01 0.06,0 0.1,-0.03 0,-0.01 0.01,-0.02 0.02,-0.02l0 -0.08c-0.04,-0.03 -0.02,-0.01 -0.05,-0.05l-1.06 0c-0.03,0.01 -0.05,0.06 -0.07,0.09l-0.01 0.02c-0.04,0.07 -0.06,0.16 -0.1,0.24l-0.02 0.04c0,0.01 0,0.01 0,0.01l-0.08 0.15c-0.01,0 -0.01,0.01 -0.01,0.01l-0.09 0.21c-0.01,0.06 0,0.01 -0.02,0.05l-0.15 0.31c0,0 0,0.01 0,0.01l-0.11 0.21c0,0 -0.01,0 -0.01,0.01l-0.13 0.27c0,0.05 -0.02,0.06 -0.05,0.1l-0.13 0.26c0,0 0,0 0,0.01 0,0 0,0 -0.01,0 0,0.01 0,0.01 0,0.01l-0.26 0.53c-0.04,0.09 -0.04,0.06 -0.09,0.16 0,0 0,0 0,0.01l-0.11 0.22c0,0 0,0.01 0,0.01l-0.01 0.02c0,0 -0.01,0 -0.01,0l-0.04 0.09c-0.01,0 -0.01,0 -0.01,0.01 0,0 0,0 0,0.01 -0.04,-0.03 -0.04,-0.06 -0.06,-0.1l-0.16 -0.29c0,0 0,0 0,-0.01l-0.05 -0.11c0,-0.01 0,-0.01 -0.01,-0.01l-0.12 -0.24c-0.08,-0.08 -0.03,0.01 -0.07,-0.14l-0.05 -0.1c0,-0.01 0,-0.01 0,-0.01l-0.22 -0.44c0,0 0,0 -0.01,-0.01 0,0 0,0 0,0 0,-0.01 0,-0.01 0,-0.01 -0.01,0 -0.01,-0.01 -0.01,-0.01l-0.01 -0.04c0,0 -0.01,0 -0.01,-0.01l-0.27 -0.51c-0.01,-0.02 0,-0.01 -0.01,-0.03 -0.04,-0.09 -0.05,-0.11 -0.1,-0.19 -0.02,-0.02 -0.03,-0.09 -0.08,-0.17 0,0 0,-0.01 -0.01,-0.01 0,0 0,-0.01 0,-0.01l-0.01 -0.04c-0.02,-0.04 0,0.01 -0.03,-0.04l-0.09 -0.2c-0.03,-0.05 -0.02,-0.07 -0.07,-0.15l-0.09 -0.18c0,0 0,0 0,0 -0.01,-0.01 -0.01,-0.01 -0.01,-0.01l-0.99 0c-0.05,0 -0.07,0.01 -0.09,0.06z"/>
  <path class="fil1" d="M7.88 17.53l-0.07 0.03c-0.01,0 -0.01,0 -0.01,0l-0.12 0.02c-0.07,0.01 -0.04,0.01 -0.09,0.03l-0.55 0.4 -0.2 0.38c-0.01,0 -0.01,0.01 -0.01,0.01l-0.01 0.01c-0.02,0.05 0,0.06 -0.02,0.11 -0.03,0.05 -0.02,-0.03 -0.03,0.05l-0.02 0.11c-0.02,0.07 -0.02,0.32 0,0.39 0.01,0.06 0,-0.02 0.02,0.07 0.03,0.17 -0.04,0.04 0.06,0.25l0.04 0.1c0.02,0.04 0.03,0.08 0.05,0.11 0,0 0.01,0 0.01,0.01l0.3 0.35c0.04,0.03 0.02,0.01 0.06,0.03 0.03,0.02 0.05,0.07 0.09,0.08l0.23 0.12c0.04,0.01 0.04,0 0.07,0.01 0.04,0.02 0.07,0.05 0.11,0.06 0.07,0.02 0.58,0.01 0.61,0l0.03 -0.01c0,0 0.01,-0.01 0.01,-0.01l0.24 -0.1c0,0 0,0 0.01,0l0.2 -0.1c0.01,0 0.01,-0.01 0.01,-0.01 0.07,-0.06 -0.01,-0.02 0.11,-0.09l0.04 -0.03c0.06,-0.07 0.05,-0.04 0.11,-0.12 0.02,-0.03 0,0 0.03,-0.03l0.03 -0.03c0,0 0,0 0.01,0l0.04 -0.05c0.04,-0.07 0.07,-0.09 0.1,-0.17 0.02,-0.06 0.03,-0.05 0.05,-0.12 0.01,-0.04 0.06,-0.08 0.07,-0.11 0.04,-0.1 0.03,-0.19 0.04,-0.31 0,-0.11 0,-0.25 -0.01,-0.35 0,-0.07 -0.02,-0.07 -0.02,-0.13l-0.03 -0.13c0,-0.01 -0.01,-0.01 -0.01,-0.01l-0.22 -0.39 -0.42 -0.31c-0.24,-0.12 -0.05,-0.04 -0.23,-0.08l-0.07 -0.03c-0.08,-0.04 -0.21,-0.02 -0.31,-0.02 -0.05,0 -0.31,-0.01 -0.33,0.01zm-0.04 0.2c-0.02,0.02 -0.02,0.03 -0.08,0.04 -0.05,0.01 -0.09,0.02 -0.13,0.06l-0.08 0.07c0,0 0,0 0,0.01l-0.02 0.01c0,0 0,0.01 -0.01,0.01l-0.16 0.28c-0.02,0.02 0,-0.01 -0.02,0.02 -0.05,0.15 -0.04,0.54 -0.03,0.71 0,0.1 0.02,0.13 0.02,0.24 0,0.07 0.02,0.07 0.03,0.1l0.03 0.1c0,0 0,0 0,0 0.03,0.07 0.03,0.1 0.08,0.19 0.02,0.03 0.02,0.08 0.05,0.12 0,0 0.01,0 0.01,0 0,0.01 0,0.01 0,0.01 0.01,0 0.01,0 0.01,0.01l0.17 0.17c0,0 0.01,0.01 0.01,0.01l0.18 0.1c0,0 0,0 0.01,0l0.02 0.02c0,0 0.01,0 0.01,0l0.04 0.01c0.09,0.05 0.03,0.05 0.2,0.05 0.07,-0.01 0.19,0 0.25,-0.02 0.03,-0.02 -0.02,0 0.03,-0.02 0.02,-0.01 0.04,-0.01 0.06,-0.01 0.03,-0.01 0.03,-0.04 0.06,-0.06l0.12 -0.09c0,0 0.02,-0.01 0.02,-0.02 0.01,0 0.02,0 0.02,-0.01l0.16 -0.25c0,-0.04 -0.01,-0.02 0.01,-0.05l0.01 -0.03c0,0 0,0 0,0l0.04 -0.17c0.01,-0.11 0.01,-0.51 0,-0.63 -0.01,-0.06 -0.02,-0.03 -0.03,-0.1 0,-0.12 -0.02,-0.09 -0.03,-0.15l-0.02 -0.1c-0.02,-0.04 0,0.03 -0.02,-0.04l-0.08 -0.17c-0.02,-0.05 -0.02,-0.04 -0.04,-0.08l-0.03 -0.05c0,-0.01 0,-0.01 -0.01,-0.01l-0.12 -0.11c0,0 0,0 -0.01,0l-0.08 -0.08c-0.04,-0.04 -0.09,-0.04 -0.14,-0.06 -0.13,-0.04 -0.04,-0.04 -0.27,-0.04 -0.05,0 -0.22,-0.01 -0.24,0.01z"/>
  <path class="fil0" d="M21.12 16.28c-0.03,0.05 0,0.02 -0.05,0.05l0 0.08c0.04,0.01 0.03,0.01 0.05,0.04 0.05,0 0.09,0 0.14,0 0.05,0 0.09,0.02 0.12,0.03 0.05,0.01 0.12,0 0.16,0.02l0.07 0.07c0.05,0.09 0.03,0.43 0.02,0.53 0,0.39 0,0.78 0,1.17l0 1.45c0,0.04 0.01,0.09 -0.02,0.13l-0.01 0.02c-0.02,0.03 -0.03,0.05 -0.06,0.07l-0.08 0.04c-0.08,0.02 -0.2,0 -0.29,0.01 -0.05,0 -0.05,0.01 -0.08,0.03 0,0 -0.01,0.02 -0.02,0.02 0,0.11 0,0.07 0.05,0.15 0.12,0 0.32,0.02 0.43,-0.01 0.05,-0.02 0.06,0.02 0.11,0 0.07,-0.03 0.17,-0.02 0.26,-0.02 0.14,0 0.29,-0.01 0.44,-0.01 0.01,0.01 0.03,0.01 0.05,0.01 0.06,0.01 0,0 0.03,0.01l0.09 0.02c0.08,0 0.16,0 0.23,0 0.01,-0.25 0.01,-0.2 -0.3,-0.2 -0.05,0 -0.07,-0.02 -0.1,-0.03 -0.02,-0.01 -0.02,-0.01 -0.04,-0.02l-0.09 -0.08c-0.03,-0.06 0.01,-0.41 -0.01,-0.52 -0.01,-0.07 -0.01,0.02 -0.03,-0.06 -0.01,-0.05 -0.01,-2.16 0.01,-2.22 0.05,-0.11 0.01,-0.36 0.03,-0.5 0.06,-0.01 0.07,-0.02 0.12,-0.03 0.05,-0.01 0.09,0 0.15,-0.01 0.08,-0.01 -0.02,-0.03 0.27,-0.03 0.04,0 0.09,0 0.14,0 0.02,0 0.06,0 0.08,0 0.09,0.01 0.03,0.01 0.06,0.02 0.05,0.02 0.08,0.01 0.13,0.02l0.18 0.07c0,0 0,0 0.01,0.01l0.01 0.01c0,0 0.01,0 0.01,0l0.05 0.03c0.03,0.02 0.06,0.03 0.09,0.06l0.12 0.18c0,0 0,0 0,0.01 0.01,0 0.01,0.01 0.01,0.01l0.05 0.15c0.01,0.07 0,0.23 0,0.31 -0.01,0.07 0.04,-0.06 -0.02,0.03 -0.02,0.04 -0.01,0.12 -0.03,0.17l-0.04 0.07c-0.03,0.07 -0.09,0.11 -0.14,0.16l-0.09 0.09c-0.01,0 -0.01,0 -0.01,0l-0.11 0.06c0,0 -0.01,0.01 -0.01,0.01 -0.03,0.01 0.02,-0.01 -0.02,0.01 -0.06,0.02 -0.14,0.02 -0.19,0.05 -0.03,0.01 -0.02,0.02 -0.1,0.02 -0.16,0 -0.05,0.03 -0.34,0.04 -0.01,0 -0.06,-0.01 -0.06,-0.01 -0.06,-0.01 -0.02,0.02 -0.04,-0.03l-0.03 0c-0.01,0.04 -0.02,0.03 -0.05,0.07 0,0 -0.01,0 -0.01,0 0,0 0,0.01 0,0.01 -0.03,0.06 0.04,0.08 0.08,0.13l0.04 0.04c0.01,0 0.03,0.03 0.04,0.03 0.04,0.06 0.07,0.12 0.12,0.16l0.03 0.03c0.01,0.01 0.01,0.01 0.01,0.01 0,0 0,0 0.01,0.01l0.02 0.02c0.09,0.09 0.03,0.06 0.12,0.17l0.04 0.04c0.08,0.08 0.04,0.05 0.09,0.12l0.09 0.09c0.01,0 0.01,0.01 0.02,0.01l0.1 0.15c0,0 0,0 0,0l0.36 0.49c0.01,0.02 0.04,0.03 0.06,0.06l0.17 0.24c0.08,0.1 0.05,0.1 0.12,0.15l0.1 0.1c0,0 0.01,0.02 0.01,0.02 0.03,-0.04 0.06,-0.04 0.11,-0.04l0.43 0.01c0,0.01 0.01,0.01 0.01,0.01 0,0 0.01,0.02 0.01,0.02l0.06 -0.01c0.02,0.01 0.09,0.01 0.13,0.01 0.04,-0.09 0.04,-0.01 0.04,-0.16 -0.04,-0.01 -0.03,0 -0.04,-0.04 -0.06,0 -0.15,0.01 -0.2,-0.02l-0.2 -0.16c-0.05,-0.1 -0.05,-0.09 -0.13,-0.16l-0.03 -0.03c0,0 0,-0.01 0,-0.01l-0.06 -0.1c0,0 -0.01,0 -0.01,0l-0.19 -0.24c-0.01,-0.02 0,-0.01 -0.02,-0.03 -0.02,-0.03 0,0 -0.02,-0.03 0,0 0,0 -0.01,0 0,-0.01 0,-0.01 0,-0.01l-0.07 -0.07c-0.02,-0.03 -0.03,-0.08 -0.06,-0.1l-0.03 -0.02c-0.02,-0.02 -0.01,-0.01 -0.02,-0.03l-0.06 -0.09c-0.08,-0.09 -0.08,-0.12 -0.12,-0.16l-0.01 -0.01c0,0 -0.01,-0.01 -0.01,-0.01l-0.08 -0.09c0,0 0,0 0,0l-0.09 -0.12c0,0 0,-0.01 0,-0.01 -0.01,0 -0.01,0 -0.01,-0.01l-0.03 -0.05c-0.04,-0.04 -0.07,-0.05 -0.09,-0.09l-0.02 -0.05c-0.03,-0.04 -0.05,-0.03 -0.04,-0.11 0.02,0 0.07,0.01 0.09,0 0.09,-0.01 -0.01,-0.01 0.07,-0.03 0.03,-0.01 0.05,0 0.08,-0.01l0.4 -0.19c0.06,-0.04 0.02,0 0.06,-0.04l0.25 -0.25 0.1 -0.19c0.01,-0.02 0.02,-0.05 0.02,-0.07l0.02 -0.09c0.04,-0.08 0.03,-0.03 0.03,-0.16 0,-0.05 0.01,-0.15 -0.01,-0.19 -0.02,-0.06 -0.01,0.04 -0.03,-0.06 -0.01,-0.05 0,-0.08 -0.02,-0.12 0,0 0,-0.01 -0.01,-0.01 0,0 0,-0.01 0,-0.01l-0.04 -0.08c-0.01,-0.01 -0.01,-0.01 -0.02,-0.02 -0.01,-0.01 -0.02,-0.03 -0.03,-0.03l-0.16 -0.16c0,0 0,-0.01 -0.01,-0.01l-0.1 -0.06c0,0 0,0 -0.01,-0.01 0,0 -0.01,0 -0.01,-0.01l-0.19 -0.05c-0.04,-0.01 -0.05,-0.01 -0.09,-0.01 -0.08,-0.02 -0.02,-0.04 -0.17,-0.04 -0.09,0 -0.19,0.01 -0.28,0 -0.08,-0.01 -0.11,-0.06 -0.19,-0.02 -0.05,0.03 -0.17,0.02 -0.24,0.02 -0.52,0 -1.06,-0.01 -1.58,0z"/>
  <path class="fil0" d="M15.96 16.45c0.05,0 0.09,0 0.13,0 0.1,0 0.09,0.02 0.13,0.03 0.05,0.02 0.13,0 0.19,0.03 0,0 0,0 0.01,0l0.06 0.02c0.01,0.13 0.04,0.09 0.04,0.26 0,0.1 0,0.2 0,0.3 0,0.32 -0.02,1.96 0,2.07 0.01,0.08 0.03,0.04 0.03,0.12 0.01,0.03 0,0.11 0.01,0.14 0.01,0.05 0,0 0.02,0.04 0.03,0.04 0.02,0.12 0.05,0.18l0.03 0.04c0.03,0.04 0.01,-0.01 0.03,0.05 0.02,0.03 0.01,0.02 0.03,0.05 0.02,0.03 0.01,0.01 0.04,0.03l0.02 0.02c0,0.01 0,0.01 0,0.01 0,0 0.01,0 0.01,0.01 0,0 0,0 0.01,0l0.22 0.18c0.05,0.04 0.2,0.08 0.23,0.1l0.02 0.01c0.05,0.03 0.08,0.05 0.14,0.05 0.14,0 0.06,0.01 0.11,0.04 0.06,0 0.13,-0.01 0.18,0.01 0,0 0.01,0 0.01,0 0.06,0.03 0.01,0.03 0.15,0.03 0.08,0 0.48,0.01 0.54,-0.01 0.07,-0.02 -0.04,-0.01 0.06,-0.03 0.03,0 0.08,0 0.11,0 0.08,0 0.04,-0.01 0.06,-0.02l0.08 -0.02c0.1,-0.01 0.01,-0.02 0.15,-0.04 0.08,-0.01 0.02,0 0.06,-0.02 0.02,-0.01 0.02,-0.01 0.03,-0.02 0,0 0.01,0 0.01,0l0.02 -0.02c0.02,0 0,0 0.03,-0.01l0.11 -0.04c0,-0.01 0.01,-0.01 0.01,-0.01 0,0 0.01,0 0.01,0l0.11 -0.08c0,-0.01 0.02,-0.02 0.03,-0.03l0.12 -0.09c0.08,-0.07 0.09,-0.13 0.14,-0.2l0.11 -0.22c0.01,-0.01 0,-0.02 0.01,-0.04 0.02,-0.04 0.02,-0.02 0.03,-0.06 0.02,-0.05 0,-0.16 0.02,-0.22 0,-0.02 0,0.02 0.01,-0.03 0.01,-0.12 0,-1.87 0,-2.15 0,-0.1 0.02,-0.09 0.03,-0.16 0.01,-0.04 0,-0.13 0.01,-0.19 0.02,-0.01 0.02,-0.01 0.04,-0.03l0.18 -0.07c0.07,-0.03 0.22,-0.01 0.31,-0.01l0 -0.17 -1.37 0.01c-0.01,0.04 -0.05,-0.04 -0.04,0.16 0.08,0 0.16,-0.01 0.23,0 0.1,0.01 0.01,0 0.06,0.02 0.02,0.02 0,0.02 0.05,0.02 0.04,0 0.08,0 0.11,0.01l0.06 0.05c0,0 0.01,0 0.01,0 0,0.01 0.01,0.01 0.01,0.01 0,0.02 0,0.06 0,0.07l0.02 0.04c0.01,0 0.01,0.01 0.01,0.01 0.03,0.07 0.01,0.39 0.01,0.47 0,0.22 0,0.43 0,0.65 0,0.08 0.02,1.12 -0.01,1.19 0,0 -0.01,0 -0.01,0.01 -0.04,0.07 -0.01,0.11 -0.02,0.19 -0.01,0.07 -0.01,0.04 -0.02,0.06 -0.02,0.04 -0.01,0.07 -0.03,0.1l-0.03 0.05c-0.03,0.07 -0.1,0.19 -0.16,0.23 -0.02,0.01 -0.06,0.03 -0.08,0.05 -0.04,0.04 -0.06,0.05 -0.1,0.07l-0.26 0.1c-0.02,0 -0.04,0 -0.07,0 -0.06,0.01 0.02,0.01 -0.07,0.02 -0.15,0.02 -0.17,-0.03 -0.29,0.03 -0.03,0.01 -0.08,0.02 -0.12,0.01 -0.04,-0.01 -0.03,-0.01 -0.04,-0.02 -0.03,-0.01 0.03,-0.01 -0.05,-0.02 -0.07,0 -0.14,0.01 -0.2,0l-0.11 -0.02c-0.03,0 -0.06,0 -0.09,0l-0.03 -0.03c-0.02,-0.02 -0.01,0 -0.05,-0.01 -0.05,-0.02 -0.04,-0.02 -0.08,-0.04 -0.01,0 -0.01,0 -0.01,-0.01l-0.11 -0.06c-0.01,0 -0.03,-0.01 -0.04,-0.02 0,0 -0.01,0 -0.01,-0.01l-0.13 -0.15c-0.02,-0.04 -0.02,-0.02 -0.03,-0.04l-0.02 -0.04c0,0 -0.01,0 -0.01,0 -0.03,-0.05 -0.03,-0.11 -0.04,-0.13 0,-0.01 -0.02,0 -0.02,-0.11 0,-0.1 -0.01,-0.08 -0.02,-0.1 -0.01,-0.02 -0.02,0.01 -0.02,-0.1l0 -1.49c0,-0.16 0,-0.32 0,-0.49 0,-0.08 0,-0.16 0,-0.24l0.01 -0.07c0.01,0 0.01,0 0.01,-0.01l0.02 -0.14c0.18,-0.13 0.05,-0.04 0.25,-0.07 0.08,-0.01 -0.02,-0.04 0.11,-0.04 0.05,0 0.11,0 0.16,0l0 -0.17 -1.67 0 0 0.17z"/>
  <path class="fil0" d="M14.01 16.56c0.01,0.23 0.04,-0.07 0.04,0.39 0,0.14 0,0.28 0,0.42l0 2.13c0,0.06 0,0.16 0,0.22 -0.02,0.14 -0.03,-0.06 -0.04,0.18l-0.09 0.05c0,0.01 0,0.01 0,0.01l-0.04 0.02c-0.02,0.01 -0.06,0.01 -0.08,0.01 -0.1,0 -0.19,-0.01 -0.29,0 -0.04,0.1 -0.04,0.09 0.01,0.2 0.1,0.01 0.31,0.02 0.39,-0.02 0.08,-0.03 0.58,-0.02 0.72,-0.01 0.01,0 0.04,0 0.05,0 0.05,0 0.02,0 0.04,0.01 0.08,0.04 0.3,0.02 0.41,0.02 0,0 0.01,-0.01 0.01,-0.01 0,-0.01 0,-0.01 0,-0.01 0,0 0.01,-0.01 0.01,-0.01l0.02 -0.07c0,-0.06 -0.02,-0.07 -0.04,-0.1 -0.1,0 -0.21,0 -0.31,0 -0.07,-0.01 -0.06,-0.01 -0.12,-0.05 -0.05,-0.03 -0.03,-0.02 -0.09,-0.04 -0.02,-0.96 -0.01,-2.01 -0.01,-2.98 0,-0.09 -0.02,-0.22 0.02,-0.3 0.05,-0.09 -0.01,-0.07 0.06,-0.1 0.05,-0.02 0.03,-0.03 0.11,-0.03 0.03,0 0.07,0 0.09,0l0.07 -0.04 0.21 0 0 -0.17 -1.67 0c0,0.05 -0.02,0.15 0.01,0.17 0.03,0.01 0.07,0 0.1,0 0.1,0.01 0.04,0.02 0.07,0.03 0.12,0.05 0.17,-0.07 0.34,0.08z"/>
  <path class="fil1" d="M10.56 18.29c0,0.06 -0.01,0.13 0.02,0.18l0.14 0.29c0,0.01 0.01,0.01 0.02,0.02l0.02 0.01c0.05,0.04 0.1,0.09 0.15,0.12l0.05 0.02c0.04,0.01 0.08,0.05 0.11,0.06 0.09,0.02 0.17,0 0.25,0.04 0,0 0.01,0 0.01,0.01 0.03,0.01 -0.02,0 0.04,0.01 0.03,0.01 0.09,0 0.13,0.01 0.09,0.02 -0.01,0.02 0.09,0.03 0.07,0.01 0.09,0.02 0.15,0.06l0.1 0.03c0.05,0.03 0.17,0.03 0.2,0.08l0.05 0.09c0.03,0.03 0.04,0.02 0.05,0.06 0.01,0.05 0.01,0.19 -0.01,0.23l-0.06 0.12c-0.04,0.09 -0.04,0.11 -0.13,0.16 0,0 0,0 -0.01,0l-0.13 0.08c-0.05,0.02 -0.06,0.01 -0.13,0.05 -0.05,0.02 -0.35,0.02 -0.43,-0.02 -0.07,-0.03 -0.09,-0.03 -0.17,-0.04 -0.05,-0.01 -0.05,-0.03 -0.09,-0.06l-0.09 -0.05c0,0 0,-0.01 -0.02,-0.02 -0.1,-0.06 -0.03,0.02 -0.08,-0.08 -0.02,-0.03 -0.01,0.03 -0.03,-0.05 -0.01,-0.08 0,-0.17 0,-0.25 0,-0.07 -0.01,-0.04 -0.02,-0.06l-0.02 -0.07 -0.14 0.02c0,0.01 0,0.01 0,0.01 0,0 -0.01,0 -0.01,0.01 -0.03,0.05 -0.01,0.39 -0.02,0.47 -0.01,0.1 -0.03,0.04 -0.03,0.15 0,0.08 0.01,0.08 0.05,0.14l0.09 0.01c0.07,0.01 0.05,0.03 0.13,0.03 0.01,0 0.05,0 0.06,0l0.05 0.02c0.03,0.01 -0.01,0.02 0.12,0.02 0.08,0 0.07,0.01 0.1,0.03 0.06,0.02 0.4,0 0.49,0 0.12,0 -0.01,-0.02 0.12,-0.03 0.02,0 0.04,0 0.07,0 0.03,-0.01 0.01,-0.02 0.05,-0.03l0.22 -0.1c0.02,-0.02 -0.02,0 0.02,-0.02l0.13 -0.06c0.02,-0.02 0.03,-0.03 0.05,-0.05l0.05 -0.06c0.01,0 0.01,0 0.01,0l0.1 -0.1c0.03,-0.03 0.04,-0.09 0.06,-0.13 0.01,-0.03 0.01,-0.02 0.01,-0.03l0.03 -0.03c0,-0.01 0,-0.01 0,-0.01 0.05,-0.06 0.02,-0.07 0.03,-0.14 0.01,-0.02 0.01,-0.02 0.02,-0.03 0.01,-0.02 0.02,-0.07 0.02,-0.17 -0.01,-0.08 -0.03,-0.05 -0.04,-0.12 -0.01,-0.08 -0.05,-0.12 -0.11,-0.18 0,-0.01 -0.01,-0.01 -0.01,-0.02l-0.03 -0.06 -0.07 -0.03c-0.05,-0.04 -0.03,-0.04 -0.1,-0.07l-0.19 -0.08c-0.12,-0.01 -0.07,-0.02 -0.16,-0.04l-0.16 -0.03c-0.13,-0.02 0.01,-0.02 -0.11,-0.04 -0.09,-0.02 -0.17,-0.01 -0.25,-0.05 -0.02,0 0,0 -0.02,-0.01l-0.09 -0.04c-0.04,-0.01 -0.02,0 -0.06,-0.01l-0.09 -0.05c0,0 -0.01,0 -0.01,0l-0.03 -0.03c-0.05,-0.04 -0.05,-0.07 -0.07,-0.13 -0.02,-0.05 -0.04,-0.14 -0.01,-0.19 0.03,-0.06 0.02,-0.15 0.08,-0.21 0.01,-0.01 0.01,-0.01 0.01,-0.01l0.06 -0.06c0.03,-0.03 0.08,-0.04 0.14,-0.05 0.1,-0.03 0.03,-0.04 0.2,-0.04 0.08,0 0.16,-0.01 0.23,0 0.02,0.01 0.09,0.04 0.2,0.06 0.02,0.01 0,0 0.02,0.01 0.03,0.01 0.04,0.03 0.07,0.05l0.1 0.12c0.01,0 0.01,0 0.01,0.01l0.06 0.05c0.02,0.18 0.02,0.09 0.04,0.17 0,0.03 0,0.05 0.01,0.08 0,0.01 0,0 0.02,0.02 0.01,0.02 0,0 0.02,0.03l0.07 0c0.06,-0.1 0.05,0.05 0.06,-0.28 0,-0.07 -0.02,-0.17 0,-0.24 0.01,-0.02 0.09,-0.09 -0.05,-0.16l-0.15 -0.06c-0.03,0 -0.07,0 -0.1,0l-0.11 -0.04c-0.01,0 -0.01,0 -0.01,0 -0.06,-0.03 -0.13,-0.02 -0.2,-0.02 -0.1,-0.01 -0.31,-0.02 -0.4,0l-0.15 0.04c-0.02,0.01 -0.04,0.01 -0.07,0.02l-0.1 0.04c0,0 0,0.01 -0.01,0.01 0,0 0,0 -0.01,0 -0.05,0.03 -0.17,0.08 -0.21,0.12l-0.11 0.11c0,0 0,0.01 0,0.01l-0.04 0.07c0,0.01 -0.02,0.02 -0.03,0.03 -0.02,0.04 -0.04,0.11 -0.05,0.15 -0.01,0.07 -0.03,0.09 -0.03,0.17z"/>
  <path class="fil3" d="M16.19 21.89l0.11 0 0 -0.15 0.25 0 0 0.88c-0.04,0.01 -0.08,0 -0.11,0.03 0,0 -0.01,0.01 -0.01,0.01 0,0 -0.02,0.02 -0.02,0.02l0.02 0.03c0,0 0.01,0.01 0.01,0.01 0.01,0.01 0.01,0.01 0.01,0.02l0.41 0 0 -0.11c-0.01,0 -0.05,0 -0.06,0 -0.05,-0.01 -0.02,0 -0.05,-0.03 0,0 0,0 0,0 -0.05,-0.06 -0.02,-0.74 -0.02,-0.85 0.07,-0.04 0.17,-0.01 0.28,-0.01l0.01 0.15 0.05 0 0.01 -0.17c0.07,-0.01 0.09,0.02 0.16,0.03 0.02,0.03 0.01,0.05 0.03,0.07 0.09,0.1 0.03,0.05 0.11,0.13l0.03 0.08c0.04,0.1 0.06,0.06 0.09,0.14l0.04 0.08c0,0.04 -0.01,0.02 0.01,0.06 0.03,0.06 0,-0.05 0.02,0.03 -0.01,0.08 -0.03,-0.01 -0.03,0.12 0,0.05 0,0.11 0,0.17l-0.11 0c-0.02,0.05 0.01,0.01 -0.03,0.05l0.03 0.06 0.41 0 0.01 -0.11c-0.07,0 -0.09,-0.01 -0.13,-0.05 0,0 -0.01,0 -0.01,0l0.01 -0.32 0.05 -0.1c0.1,-0.13 0.05,-0.11 0.12,-0.2l0.04 -0.05c0,0 0,0 0,-0.01 0.04,-0.05 0.04,-0.03 0.08,-0.1l0.01 -0.03c0.04,-0.05 0.09,-0.04 0.07,-0.13l-0.14 0.03 -0.16 0.28c0,0 0,0.01 0,0.01 -0.01,0 -0.01,0.01 -0.01,0.01l-0.03 0.04c0,0.01 -0.02,0.03 -0.02,0.03 -0.03,0.05 -0.03,0.07 -0.08,0.09 0,0 0,-0.01 0,-0.01l-0.05 -0.11c0,-0.01 0,-0.01 0,-0.01l-0.18 -0.29c0,0 0,-0.01 0,-0.01 -0.01,-0.02 -0.02,-0.04 -0.04,-0.06l-1.19 0 0 0.25z"/>
  <path class="fil3" d="M19.21 22.45l-0.01 -0.02c0,-0.01 0,-0.02 -0.01,-0.03l-0.17 -0.34c0,0 0,-0.01 -0.01,-0.01l-0.05 -0.13c0,0 0,0 0,-0.01l-0.12 -0.26c-0.06,-0.01 -0.12,-0.01 -0.18,-0.01 -0.01,0 -0.09,0 -0.09,0 -0.06,0.01 -0.04,-0.02 -0.05,0.06l0.04 0.01c0.03,0.01 0.1,0.01 0.11,0.05l0 0.87 -0.15 0 0 0.1c0.05,0.01 0.29,0.02 0.34,0l0.05 -0.05c0,0 -0.02,-0.02 -0.02,-0.02 0,0 0,0 -0.01,0 -0.03,-0.03 -0.02,-0.03 -0.11,-0.03 0,-0.14 0,-0.27 0,-0.4 0,-0.11 -0.07,-0.07 -0.02,-0.16 0.01,-0.01 0.04,0.01 0.01,-0.06 -0.01,-0.04 -0.02,0.02 -0.03,-0.08 0.04,0 0.06,0.02 0.08,0.04 0,0.02 0,0.02 0.01,0.03 0.01,0.03 0,0.02 0.01,0.03l0.11 0.23c0.03,0.07 0.03,0.12 0.08,0.17 0,0 0.01,0.01 0.01,0.01 0,0 0,0 0.01,0 0.03,0.04 0.01,-0.01 0.02,0.06l0.03 0.1c0.02,0.05 0.05,0.13 0.1,0.14 0.01,0 0.03,0 0.04,0 0,-0.02 0,-0.05 0,-0.06 0.01,-0.07 0.01,-0.03 0.03,-0.06 0.01,-0.02 0,0.01 0.01,-0.02 0,0 0.01,-0.03 0.01,-0.03l0.1 -0.24c0,0 0,0 0,0l0.05 -0.09c0,-0.01 0,-0.01 0,-0.01 0,0 0.01,-0.01 0.01,-0.01l0.05 -0.11c0.03,-0.06 0.05,-0.16 0.1,-0.17 0.02,-0.01 -0.01,-0.01 0.03,-0.01 0,0.18 0.01,0.44 0,0.61 0,0.03 0,0.02 -0.01,0.04l-0.01 0.02c-0.01,0 -0.01,0.01 -0.02,0.01 0,0 0,0.01 -0.01,0.01 0,0 0,0 0,0 -0.01,0 -0.01,0 -0.01,0 -0.07,0.03 -0.08,0.03 -0.07,0.12l0.41 0c0.01,-0.03 0.01,-0.03 0,-0.06 0,0 0,0 0,-0.01l-0.02 -0.02c-0.03,-0.02 -0.08,-0.02 -0.12,-0.03l0 -0.86 0.05 -0.04c0.03,-0.01 0.06,-0.01 0.1,-0.01l-0.01 -0.07 -0.31 0 -0.03 0.08c0,0 0,0 0,0.01 0,0 0,0 -0.01,0 -0.03,0.06 -0.05,0.1 -0.06,0.17l-0.05 0.08c-0.04,0.04 -0.01,0.06 -0.08,0.17l-0.04 0.07c0,0 0,0.01 0,0.01l-0.01 0.03c-0.01,0 -0.01,0.01 -0.01,0.01l-0.05 0.12c-0.03,0.05 0,0.03 -0.04,0.06z"/>
  <path class="fil3" d="M22.76 22c0,0.1 -0.01,0.25 0.02,0.32l0.03 0.07c0,0.01 0,0.01 0,0.01 0,0.01 0,0.01 0,0.01l0.25 0.23c0,0 0.06,0.05 0.15,0.01 0,0 0,0 0,0l0.03 -0.02c0.06,-0.02 0.17,-0.03 0.22,-0.14l0.01 -0.02c0.03,-0.05 0.03,0.03 0.03,-0.07 0,-0.15 0.06,0 0.04,-0.3 -0.01,-0.04 -0.02,-0.01 -0.03,-0.06 -0.02,-0.03 0,-0.05 -0.01,-0.08l-0.05 -0.1c-0.01,-0.01 -0.01,-0.01 -0.01,-0.02 -0.02,-0.01 -0.03,-0.03 -0.04,-0.05l-0.03 -0.03c-0.09,-0.07 -0.4,-0.07 -0.48,0.01l-0.06 0.06c-0.04,0.04 -0.02,0.07 -0.04,0.11 -0.02,0.05 -0.01,-0.05 -0.03,0.06zm-0.17 0.06c0,0.31 -0.03,0.34 0.08,0.46 0,0 0,0.01 0,0.01l0.08 0.09c0.02,0.01 0.02,0 0.03,0.01 0.07,0.04 -0.02,0.01 0.11,0.08l0.01 0.01c0.05,0.03 0.35,0.03 0.39,0.02l0.16 -0.09c0,0 0.01,0 0.01,0 0,0 0,-0.01 0.01,-0.01 0,0 0,0 0,0 0.04,-0.04 0.02,-0.05 0.1,-0.06 0.01,-0.07 0.01,-0.04 0.04,-0.07 0.04,-0.05 0.01,-0.03 0.04,-0.08l0.03 -0.08c0.04,-0.14 0.03,0.01 0.03,-0.3 0,-0.02 0,-0.04 0,-0.05 -0.01,-0.07 0,-0.02 -0.02,-0.05 0,0 0,0 -0.01,-0.01l-0.02 -0.04c0,0 0,0 0,-0.01l-0.25 -0.24c-0.03,-0.02 -0.05,0 -0.09,-0.02 -0.11,-0.04 -0.08,-0.03 -0.26,-0.03 -0.1,0 -0.03,0.01 -0.09,0.03 -0.07,0.03 -0.03,-0.02 -0.14,0.06 -0.04,0.04 -0.08,0.03 -0.12,0.08 -0.05,0.07 0.03,-0.04 -0.01,0.02l-0.02 0.04c-0.03,0.08 -0.09,0.05 -0.09,0.23z"/>
  <path class="fil3" d="M4.45 21.71l0.1 0.01 0 0.91 -0.1 0 -0.03 0.06c0.01,0.02 0.02,0.03 0.03,0.05l0.41 0 0 -0.11c-0.02,0 -0.05,0 -0.07,-0.01 -0.08,-0.02 0.02,-0.01 -0.06,-0.03 0.01,-0.1 0.01,0 0.03,-0.06 0.01,-0.03 -0.02,-0.04 -0.03,-0.06l0 -0.27 0.6 0 -0.03 0.4 -0.06 0.04c-0.01,0 -0.02,0.01 -0.02,0.01l-0.06 0.03 0.04 0.06 0.44 0c0.01,-0.06 0.01,-0.05 -0.03,-0.1l-0.11 -0.01 0 -0.91 0.15 -0.01 -0.01 -0.07 -0.45 0 0 0.07c0.03,0.01 0.06,0 0.08,0.01 0,0 0.01,0 0.01,0 0.02,0.01 0.04,0.02 0.05,0.04l0 0.34c-0.08,0 -0.51,0.02 -0.56,-0.01l-0.04 -0.04 0.02 -0.32c0.05,-0.02 0.05,-0.01 0.11,-0.02l0 -0.07 -0.44 0c0,0.03 0.02,0.05 0.03,0.07z"/>
  <path class="fil3" d="M0.96 21.71l0.1 0.01c0,0.04 0,0.07 0,0.11 0,0.23 0.04,-0.08 0.04,0.33 0,0.44 -0.02,0.21 -0.04,0.34 0,0.03 0,0.09 0,0.13l-0.1 0c-0.03,0.05 -0.01,0.02 -0.05,0.05 0.01,0.02 0.02,0.02 0.05,0.06l0.4 0c0.01,-0.03 0.03,-0.03 0.05,-0.06 -0.01,0 -0.01,-0.01 -0.01,0 -0.01,0.01 -0.06,-0.05 -0.13,-0.06 -0.01,-0.15 -0.04,0.07 -0.04,-0.41l0.6 -0.01 -0.02 0.39c-0.01,0.02 0.01,0.03 -0.11,0.04l0 0.11 0.4 0c0.02,-0.02 0.03,-0.04 0.04,-0.06 -0.01,-0.02 -0.02,-0.02 -0.02,-0.05l-0.11 -0.01 0 -0.47c-0.01,-0.08 0,-0.04 -0.03,-0.05 0.01,-0.08 0.01,0.02 0.02,-0.08 0.01,-0.02 0.01,-0.07 0.01,-0.1 0,-0.07 -0.01,-0.13 0,-0.2l0.13 -0.01 0 -0.07 -0.44 0 0 0.07 0.09 0.01c0.02,0.09 0.02,0.03 0.03,0.07 0.02,0.04 0.01,0.26 0.01,0.31l-0.6 0 0.01 -0.36c0.05,-0.02 0.05,-0.02 0.13,-0.03l0 -0.07 -0.45 0c-0.01,0.08 -0.02,0 0.02,0.05 0.01,0.01 0.02,0.02 0.02,0.02z"/>
  <path class="fil3" d="M10.13 21.64l0 0.08 0.1 0 0 0.88c-0.01,0.02 0,0.01 -0.06,0.04l-0.01 0.01c-0.06,0.03 -0.03,0 -0.07,0.03 0.02,0.04 0,0 0.03,0.02 0,0.01 0,0.01 0,0.01l0.31 0.03c0.02,-0.04 0.03,-0.03 0.05,-0.06l-0.05 -0.04c-0.03,-0.02 -0.05,-0.01 -0.09,-0.02l0 -0.72c0.07,-0.01 -0.01,-0.04 0.1,0.07 0,0 0.01,0.01 0.01,0.01 0.05,0.06 0,0.03 0.07,0.11l0.06 0.08c0.1,0.13 0.08,0.08 0.15,0.18 0.03,0.06 0.07,0.06 0.09,0.12 0.04,0.09 -0.03,-0.01 0.08,0.1l0.06 0.05c0.05,0.07 0.01,0.12 0.22,0.12l0.01 -1.02 0.1 -0.01 -0.01 -0.07 -0.34 0 0 0.07c0.07,0.01 0.08,0.02 0.13,0.03l0.01 0.75c-0.08,-0.02 0.01,0.02 -0.1,-0.09l-0.04 -0.05c0,-0.01 -0.01,-0.01 -0.01,-0.01 0,0 0,-0.01 0,-0.01 -0.03,-0.04 -0.08,-0.08 -0.11,-0.11l-0.01 -0.02c-0.02,-0.04 0,-0.04 -0.03,-0.08 -0.07,-0.06 -0.05,0 -0.09,-0.1 -0.01,-0.02 0,-0.01 -0.02,-0.03l-0.02 -0.02c-0.03,-0.03 -0.07,-0.06 -0.09,-0.1 -0.03,-0.06 0.01,-0.02 -0.07,-0.09 -0.07,-0.07 -0.03,-0.05 -0.07,-0.1l-0.03 -0.04 -0.26 0z"/>
  <path class="fil3" d="M23.88 21.72l0.01 0.91 -0.1 0 0 0.11c0.05,0 0.12,0.01 0.16,-0.01l0.03 -0.03c0.06,0.04 -0.01,0.05 0.11,0.04 0.03,-0.08 0.01,0 0.04,-0.06l-0.03 -0.03c0,0 -0.03,-0.02 -0.1,-0.02l0 -0.74c0.07,0.02 0.01,-0.01 0.06,0.04 0.02,0.03 0.02,0.02 0.04,0.05 0.07,0.13 0.08,0.08 0.15,0.16 0.05,0.07 0,0.06 0.05,0.11l0.03 0.03c0.01,0 0.01,0.01 0.01,0.01l0.01 0.01c0.01,0 0.01,0 0.01,0.01 0,0 0,0 0.01,0l0.11 0.16c0.01,0 0.02,0.01 0.02,0.01l0.09 0.12c0.04,0.03 0.04,0.05 0.05,0.1 0.12,0.01 0.01,0.02 0.09,0.04 0.03,0 0.09,0 0.11,-0.01l0.01 -0.99c0.03,-0.05 -0.01,-0.01 0.04,-0.02l0.06 -0.02 -0.01 -0.05 -0.34 -0.01 0 0.07c0.08,0.01 0.08,0.01 0.13,0.04l0.01 0.74c-0.05,-0.01 -0.08,-0.06 -0.11,-0.09l-0.12 -0.15c0,0 0,0 -0.01,-0.01 -0.01,-0.01 0,0 -0.02,-0.02l-0.02 -0.03c0,0 0,0 0,-0.01 -0.04,-0.06 0,-0.03 -0.07,-0.09l-0.03 -0.04c-0.02,-0.04 -0.03,-0.06 -0.06,-0.09 -0.03,-0.02 -0.03,-0.03 -0.05,-0.04l-0.04 -0.06c-0.02,-0.06 0,-0.02 -0.03,-0.06l-0.02 -0.01c0,-0.01 -0.01,-0.01 -0.01,-0.02l-0.05 -0.06c-0.01,-0.03 0,0 -0.02,-0.03l-0.02 -0.02c-0.02,-0.02 0.02,-0.01 -0.03,-0.02l-0.28 0c0,0.03 0.02,0.04 0.04,0.06l0.09 0.02z"/>
  <path class="fil3" d="M5.68 21.71l0.14 0.01 0.01 0.9 -0.11 0.01c0,0 -0.01,0.01 -0.01,0.02 -0.03,0.03 -0.04,0.04 -0.03,0.09l0.45 0 0.01 -0.07c-0.06,-0.01 -0.1,-0.02 -0.14,-0.06l0 -0.87c0.06,-0.02 0.01,-0.02 0.1,-0.03 0.05,0 0.07,0 0.11,0.02l0.02 0c0.1,0.03 0.14,0.01 0.12,0.25 -0.01,0.06 -0.01,0.04 -0.06,0.08 0,0 -0.01,0.01 -0.01,0.01 -0.06,0.04 -0.16,0.05 -0.24,0.06 0,0.06 0.01,0.08 0.05,0.12l0.08 0.09c0.01,0.01 0,0.01 0.01,0.02l0.03 0.04c0.03,0.02 0.02,0.01 0.04,0.03 0,0.01 0,0.01 0.01,0.01l0.02 0.06c0.01,0.03 0.04,0.04 0.06,0.06 0.02,0.03 0.01,0.05 0.03,0.07l0.1 0.11 0.2 0 0 -0.11 -0.17 -0.11c-0.03,-0.03 -0.03,-0.08 -0.11,-0.16l-0.07 -0.09c-0.03,-0.04 -0.06,-0.01 -0.05,-0.08l0.07 -0.04c0.04,-0.03 0.1,-0.03 0.13,-0.08 0.01,-0.02 0,0 0.01,-0.03l0.05 -0.1c0.03,-0.04 0.05,-0.02 0.01,-0.09 -0.02,-0.03 -0.02,-0.06 -0.02,-0.1 -0.04,-0.03 -0.03,-0.01 -0.06,-0.05l-0.05 -0.06 -0.73 0 0 0.07z"/>
  <path class="fil3" d="M13.91 21.71l0.09 0.01c0.02,0.13 0.05,0.06 0.05,0.16l0 0.67c-0.01,0.06 -0.01,0.02 -0.02,0.04l-0.02 0.02c-0.04,0.02 -0.04,0.01 -0.1,0.02l0 0.11 0.41 0c0.01,-0.02 0.03,-0.04 0.04,-0.06 -0.02,-0.02 -0.03,-0.02 -0.03,-0.05l-0.11 -0.01c0,-0.01 0,-0.04 0,-0.04 -0.02,-0.08 -0.01,-0.02 -0.02,-0.05 -0.01,-0.02 -0.01,0.01 -0.02,-0.04 0,-0.02 0,-0.06 0,-0.07 0,-0.08 0,-0.16 0,-0.24 0,-0.08 0,-0.17 0,-0.25 0,-0.02 0,-0.03 0.01,-0.05l0.01 -0.03c0,0 0,0 0.01,-0.01 0.01,-0.04 0.01,-0.07 0.01,-0.12 0.07,-0.01 0.22,-0.03 0.27,0.02 0,0 0.01,0.01 0.01,0.01 0,0 0,0 0,0.01l0.05 0.05c0.03,0.04 0.03,0.14 0,0.18 0,0 0,0.01 -0.01,0.01l-0.04 0.06c-0.06,0.06 -0.06,0.03 -0.12,0.05l-0.16 0.03c0.03,0.07 -0.04,-0.06 0.02,0.02l0.09 0.1c0.02,0.06 0.02,0.05 0.06,0.1 0.05,0.04 0.05,0.08 0.1,0.12 0.02,0.03 0.04,0.08 0.06,0.11 0,0 0.03,0.02 0.03,0.03l0.03 0.04c0.04,0.12 0.1,0.08 0.28,0.08 0.01,-0.07 0.01,-0.05 -0.02,-0.09 -0.02,-0.02 -0.01,-0.01 -0.04,-0.02l-0.1 -0.09c-0.02,-0.03 -0.01,-0.02 -0.02,-0.04 -0.01,-0.01 -0.07,-0.05 -0.09,-0.1 -0.03,-0.06 0.01,-0.03 -0.06,-0.07 -0.03,-0.03 -0.04,-0.04 -0.05,-0.08l-0.02 -0.04c-0.02,-0.04 -0.01,0.03 -0.02,-0.05l0.07 -0.02c0.04,-0.02 0.08,-0.04 0.12,-0.07l0.03 -0.03c0.05,-0.07 0.07,-0.18 0.04,-0.25 -0.01,-0.05 -0.03,-0.08 -0.06,-0.1l-0.08 -0.05 -0.68 0 0 0.07z"/>
  <path class="fil3" d="M12.98 21.71l0.1 0.01c0.03,0.1 0.05,0.07 0.03,0.12 -0.02,0.06 -0.01,-0.04 -0.02,0.05 0.02,0.01 0.04,0 0.03,0.07 -0.01,0.09 -0.01,-0.01 -0.03,0.07 0,0 -0.01,0.08 0,0.09 0,0.05 -0.01,0.02 0.02,0.05 0,0.01 0,0.01 0.01,0.01 0,0 0,0.01 0,0.01l-0.01 0.01c-0.03,0.04 -0.01,-0.02 -0.02,0.03 0,0.01 0,0.06 0,0.07l-0.01 0.31c-0.01,0.1 -0.03,0.02 -0.02,0.12l0.73 0.01 0.01 -0.3c-0.11,0.02 -0.08,0.03 -0.08,0.14 -0.06,0.04 -0.11,0.05 -0.19,0.05 -0.08,0 -0.17,0 -0.25,-0.01l0.01 -0.4c0.01,-0.01 0.01,-0.01 0.02,-0.02l0.22 0c0.05,0.05 0.03,0.02 0.04,0.05 0.02,0.03 0.01,0.05 0.02,0.09l0.06 0c0.01,-0.08 0.02,-0.29 0,-0.35l-0.05 0c-0.02,0.04 -0.02,0.06 -0.02,0.11l-0.3 0c0,-0.04 -0.01,-0.07 -0.01,-0.1 0.01,-0.1 0.01,-0.01 0.02,-0.08 0.01,-0.06 0,-0.14 0.01,-0.2 0.15,0 0.14,-0.02 0.26,0.01 0.04,0.01 0.06,0.01 0.1,0.01 0.01,0.09 -0.01,0.05 0.03,0.09 -0.02,0.07 -0.02,-0.03 -0.03,0.06l0.1 0 0 -0.18c0.02,-0.08 0.03,0 0.03,-0.06l-0.8 -0.01 -0.01 0.07z"/>
  <path class="fil3" d="M8.94 21.72l0.09 0c0.02,0.15 -0.03,0.11 0.04,0.13 -0.02,0.11 -0.02,-0.02 -0.04,0.08 -0.02,0.17 0.04,0.23 0.01,0.29 0,0 0,0 0,0.01 0.04,0.03 0.03,0.04 0.03,0.11 0,0.04 -0.01,0.12 0,0.16 0.01,0.1 0,0.01 0.02,0.06 0,0 0,0.01 0.01,0.01 0,0 0,0.01 0,0.01l0.08 0.12c0.02,0 0.06,0 0.07,0 0.03,0.01 0.02,0.01 0.03,0.02 0.09,0.05 -0.05,-0.01 0.03,0.02l0.41 -0.04 0.07 -0.04c0.04,-0.03 0.08,-0.08 0.1,-0.13 0.02,-0.02 0.01,0 0.02,-0.02 0.02,-0.06 -0.01,-0.62 0.01,-0.79l0.13 -0.01 0 -0.07 -0.38 0 0 0.07 0.13 0.01c0.01,0.13 0,0.47 0,0.64 0,0.02 0.01,0.07 0,0.1 -0.01,0.05 -0.02,0.01 -0.02,0.09 -0.11,0.01 -0.04,0.02 -0.12,0.04 -0.02,0 -0.02,0 -0.05,0.01 -0.05,0.02 0,0.04 -0.19,0.03 -0.08,-0.01 -0.01,0 -0.04,-0.02l-0.14 -0.1 0 -0.6c0,-0.16 -0.03,-0.04 -0.03,-0.13 0,-0.07 0.08,-0.06 0.13,-0.07 0.02,-0.02 0.04,-0.04 0.03,-0.07l-0.47 0c0,0.07 -0.01,-0.01 0.04,0.08z"/>
  <path class="fil3" d="M7.67 21.71l0.09 0.01 0 0.88c-0.02,0.06 -0.01,-0.01 -0.05,0.06 -0.02,0.03 -0.02,0.02 -0.01,0.08l0.72 0c0.01,-0.03 0.04,-0.03 0.05,-0.06l-0.01 -0.23 -0.06 0c-0.02,0.05 0.02,0 -0.03,0.09l-0.04 0.09 -0.4 0 0 -0.42 0.27 -0.01c0.03,0.02 0,0 0.02,0.03l0.04 0.09c0.03,0.03 -0.05,0.01 0.05,0.02 0.03,-0.05 0.02,-0.29 0.02,-0.31 0,-0.02 0.01,0 -0.02,-0.04 -0.1,0 -0.03,-0.01 -0.06,0.06 0,0 0,0.01 0,0.01 -0.04,0.08 -0.25,0.05 -0.32,0.04l0 -0.38c0.05,-0.01 0.16,-0.01 0.2,0 0.09,0 0.02,0 0.08,0.02 0.03,0 0.09,0 0.12,0l0 0.15 0.06 0 0 -0.11c0.01,-0.14 0.07,0 0.03,-0.14l-0.79 0c-0.01,0.07 -0.01,0.01 0.02,0.04l0.02 0.03z"/>
  <path class="fil3" d="M2.23 21.72l0.1 0 0 0.88c0,0.03 -0.06,0.06 -0.07,0.09 0.06,0.04 0.01,0 0.05,0.05l0.67 0c0.02,-0.04 0.04,-0.03 0.05,-0.06l0 -0.23 -0.05 0c-0.02,0.04 0,0.02 -0.03,0.07 0,0.01 0,0.01 0,0.01l-0.02 0.02c-0.06,0.11 -0.03,0.08 -0.42,0.08l0 -0.43c0.06,0 0.24,-0.02 0.27,0.02 0.05,0.04 0.04,0.06 0.04,0.12l0.07 0c0.01,-0.09 0.01,-0.31 -0.01,-0.35 -0.1,0 -0.04,-0.01 -0.06,0.04l-0.03 0.07c-0.06,0.01 -0.22,0 -0.28,0l0 -0.35c0.13,-0.08 0.24,-0.01 0.38,-0.01l0.01 0.15 0.06 0c0.02,-0.03 0,-0.01 0.01,-0.05 0.02,-0.06 0.04,-0.1 0.02,-0.2l-0.8 0c-0.01,0.07 -0.02,0 0.04,0.07 0,0 0,0 0,0.01z"/>
  <path class="fil3" d="M6.7 21.71c0.04,0.01 0.06,0 0.09,0.01 0.02,0.01 0.05,0.02 0.06,0.04l0 0.84 -0.05 0.06c-0.03,0.03 -0.03,0 -0.02,0.08l0.73 0c0.01,-0.15 0.06,-0.13 0.03,-0.24l-0.01 -0.05c-0.11,0.01 0,0.02 -0.08,0.03 0,0.03 0,0.07 -0.01,0.09l-0.04 0.06 -0.38 0 0 -0.43 0.29 0 0 0.14 0.09 0 0.01 -0.31c-0.02,-0.01 -0.03,-0.04 -0.09,-0.04 0,0.01 0,0.01 0,0.01l-0.01 0.1 -0.29 0 0 -0.34c0.01,-0.02 0.04,-0.04 0.07,-0.04 0.02,-0.01 0.09,-0.01 0.12,0 0.05,0 0.06,0.01 0.2,0.02l0 0.15 0.07 0c0,-0.05 0,-0.09 0,-0.14 0.01,-0.07 0.03,-0.07 0.03,-0.1l-0.81 -0.01 0 0.07z"/>
  <path class="fil3" d="M21.28 21.89c0,0.06 0,0.1 0.02,0.14 0,0.01 0,0.01 0,0.01 0.01,0.01 0.01,0.01 0.01,0.01 0.01,0.02 0,0.02 0.02,0.04 0,0 0.03,0.03 0.04,0.04 0.04,0.05 -0.01,0.01 0.05,0.04l0.02 0.01c0,0 0.01,0 0.01,0l0.06 0.03c0,0 0.01,0 0.01,0l0.09 0.03c0.03,0 0.06,0 0.09,0 0.04,0 0.05,0.02 0.08,0.04 0.01,0 0.01,0.01 0.01,0.01 0,0 0.01,0 0.01,0l0.04 0.04c0,0.12 0.02,0.14 -0.02,0.21l-0.09 0.08c-0.02,0.02 -0.26,0.01 -0.3,0.01l-0.02 -0.02c-0.04,-0.05 -0.04,-0.12 -0.07,-0.19 -0.09,0 -0.06,0.05 -0.06,0.27l0.08 0.03c0.01,0.01 -0.01,0.02 0.05,0.02 0.08,0 0.26,0.02 0.32,-0.01 0.02,-0.01 -0.01,0 0.02,-0.01l0.06 -0.04c0.04,-0.02 0.06,-0.03 0.09,-0.06l0.07 -0.09c0.01,-0.02 0.01,-0.02 0.01,-0.03l0.01 -0.04c0.03,-0.05 0.03,-0.06 0.03,-0.13 0,-0.08 -0.01,-0.03 -0.03,-0.07l-0.03 -0.06c0,-0.01 -0.01,-0.02 -0.02,-0.03l-0.03 -0.03c-0.04,-0.04 -0.08,-0.03 -0.12,-0.04 -0.12,-0.01 0.01,-0.03 -0.13,-0.03 -0.02,0 -0.05,0 -0.07,0 -0.06,-0.02 -0.08,-0.06 -0.13,-0.09l-0.01 -0.19 0.09 -0.07c0.07,-0.02 0.23,0 0.3,0.03l0 0.18 0.07 -0.01c0,0 0,0 0,-0.01 0.06,-0.04 0.06,-0.19 0.01,-0.24 0,-0.01 -0.02,-0.03 -0.02,-0.03 -0.15,0 -0.02,-0.04 -0.31,-0.04 -0.05,0 -0.02,0 -0.05,0.02l-0.16 0.07c0,0.01 -0.01,0.01 -0.01,0.02 0,0 -0.01,0.01 -0.02,0.02l-0.02 0.02c-0.03,0.03 0.01,-0.03 -0.01,0.02 -0.01,0.01 0,0.01 -0.01,0.03 -0.02,0.04 -0.03,0.04 -0.03,0.09z"/>
  <path class="fil3" d="M14.93 21.89c0,0.06 0,0.13 0.01,0.17 0,0.01 0.02,0.03 0.02,0.04 0.02,0.04 0.05,0.05 0.09,0.07 0,0 0,0 0,0.01 0.01,0 0.01,0 0.01,0 0.04,0.02 0.06,0.02 0.11,0.02 0.06,0.01 0.02,0.04 0.11,0.04 0.13,0 0.05,0.04 0.17,0.04l0 0.26c0,0 0,0 0,0.01l-0.03 0.02c0,0 -0.01,0 -0.01,0.01 -0.02,0.02 -0.02,0.04 -0.05,0.05l-0.27 0c-0.02,-0.02 -0.01,-0.01 -0.02,-0.02l-0.05 -0.05c-0.01,-0.01 -0.02,-0.02 -0.03,-0.02 0,-0.15 0.01,-0.1 -0.03,-0.12 -0.03,0.01 -0.03,0.04 -0.03,0.08l0 0.19 0.06 0.03c0.06,0.04 0.25,0.02 0.32,0.02 0.09,0 0.07,-0.02 0.13,-0.05l0.17 -0.16c0.02,-0.03 0.01,-0.05 0.02,-0.09 0.01,-0.04 0.04,-0.03 0.04,-0.08 -0.01,-0.08 -0.04,0 -0.04,-0.14l-0.09 -0.1c0,0 0,0 -0.01,0 -0.02,-0.02 -0.04,-0.02 -0.08,-0.02 -0.13,0 -0.03,-0.04 -0.17,-0.03 -0.03,0 -0.07,0 -0.1,-0.01l-0.03 -0.02c-0.02,-0.01 -0.01,-0.01 -0.04,-0.01l-0.03 -0.09c-0.01,-0.01 -0.01,0 -0.01,-0.03 0,-0.06 0.02,-0.06 0.04,-0.1 0.01,-0.03 0,-0.01 0.01,-0.03l0.06 -0.06c0.04,-0.02 0.22,-0.02 0.26,0.03l0.02 0.01c0.05,0.05 0.03,0.09 0.03,0.17l0.07 0 0.01 -0.16c0.01,-0.07 0.01,0.01 0.02,-0.05 0,-0.05 -0.02,-0.05 -0.04,-0.08 -0.01,0 -0.04,0 -0.05,0 -0.04,-0.01 -0.04,-0.01 -0.04,-0.01 -0.07,-0.04 -0.16,-0.03 -0.24,-0.03 -0.04,0 -0.05,0.01 -0.09,0.03 0,0 0,0 -0.01,0 0,0 0,0.01 -0.01,0.01l-0.13 0.1c-0.02,0.02 -0.05,0.09 -0.05,0.15z"/>
  <path class="fil3" d="M25.62 22.34c0,0.06 0.01,0.11 -0.02,0.17l-0.07 0.08c-0.01,0 -0.01,0.01 -0.01,0.01 -0.02,0.02 -0.05,0.02 -0.08,0.03 -0.03,0.01 -0.03,0.01 -0.05,0.03 -0.06,-0.02 0.04,-0.02 -0.15,-0.03 -0.06,-0.01 -0.05,-0.03 -0.08,-0.06 -0.04,-0.03 -0.04,-0.06 -0.04,-0.11 -0.03,-0.02 -0.02,0 -0.04,-0.04l-0.03 0.06c-0.03,0.04 -0.04,0.13 -0.02,0.17 0,0.01 0.01,0.01 0.01,0.01l0.06 0.08 0.37 0c0.04,0 0.05,-0.02 0.09,-0.04l0.07 -0.07c0,0 0.01,0 0.01,-0.01 0,0 0,0 0.01,0l0.04 -0.05c0.01,-0.01 0.02,-0.02 0.03,-0.03l0.04 -0.03c0,-0.07 0.02,-0.19 -0.01,-0.25 0,0 0,-0.01 0,-0.01 -0.05,-0.09 -0.06,-0.13 -0.17,-0.14 -0.02,-0.01 -0.02,0 -0.05,-0.01 -0.08,-0.03 0.03,-0.03 -0.16,-0.03 -0.05,0 -0.09,-0.02 -0.13,-0.05l-0.02 -0.03c0,0 0,0 -0.01,-0.01 -0.02,-0.04 -0.01,-0.05 -0.01,-0.1 0.03,-0.09 -0.05,0.07 0.01,-0.02l0.03 -0.11c0.01,0 0.03,-0.01 0.04,-0.02 0.06,-0.02 0.18,-0.03 0.25,-0.01 0.04,0.01 0.06,0.05 0.09,0.07l0 0.14 0.07 -0.05 0 -0.24c-0.27,0 0.01,-0.04 -0.35,-0.04 -0.09,0 -0.18,0.08 -0.25,0.15 0,0.01 -0.01,0.01 -0.01,0.02 -0.05,0.07 -0.02,0.29 0.01,0.35l0.18 0.09c0.14,0.05 -0.03,0 0.05,0.03 0.12,0.03 0.14,-0.04 0.22,0.05 0.03,0.03 0.04,0.04 0.08,0.05z"/>
  <path class="fil3" d="M20.48 21.94c0.04,0.03 0.03,0.09 0.04,0.14 0,0 0.01,0.02 0.01,0.03l0.03 0.03c0.02,0.02 0.03,0.02 0.06,0.03l0.02 0.01c0.05,0.03 0,0 0.09,0.03 0.03,0.01 -0.01,0 0.02,0.01 0.08,0.06 -0.06,-0.01 0.02,0.02l0.26 0.04 0.01 0.05c0,0 0,0.01 0.01,0.01l0.01 0.17c-0.02,0.01 -0.06,0.05 -0.08,0.07l-0.04 0.05 -0.27 0c-0.03,-0.01 -0.06,-0.05 -0.08,-0.07 0,0 0,0 0,-0.01 -0.04,-0.04 0,-0.11 -0.05,-0.13 -0.03,0.01 -0.03,0.03 -0.05,0.07 -0.02,0.03 -0.01,-0.04 -0.02,0.04 -0.01,0.09 0.04,0.05 0.01,0.11 0,0.01 -0.01,0.01 -0.01,0.01 0.11,0.07 0.01,0.09 0.21,0.09 0.16,0 0.2,0.02 0.33,-0.04l0.16 -0.18c0.04,-0.08 0.03,-0.1 0.03,-0.2 0,-0.09 0,-0.04 -0.02,-0.09l-0.01 -0.02c-0.04,-0.09 -0.02,-0.08 -0.12,-0.1 -0.03,-0.01 -0.05,0 -0.07,-0.01 -0.1,-0.02 0.01,-0.03 -0.18,-0.03 -0.13,-0.01 0.02,-0.04 -0.12,-0.04 0,-0.11 -0.04,-0.04 -0.04,-0.18 0.01,-0.09 0.03,0.04 0.04,-0.11 0.09,0 0.06,-0.03 0.22,-0.03 0.07,0 0.1,0.01 0.14,0.06 0.05,0.05 0.01,0.1 0.04,0.15 0.03,-0.01 0.01,0 0.03,-0.02 0.07,-0.04 0.02,-0.13 0.04,-0.2 0,-0.01 -0.05,-0.05 -0.11,-0.06 -0.1,-0.01 0.04,-0.04 -0.26,-0.04 -0.07,0 -0.05,0.02 -0.06,0.02l-0.19 0.14c-0.05,0.06 0.01,0.13 -0.05,0.18z"/>
  <path class="fil3" d="M12.57 21.64c0,0.03 0.02,0.05 0.04,0.06 0.06,0.03 0.11,-0.01 0.09,0.09 -0.02,0.06 -0.01,0 -0.02,0.05l-0.01 0.06c-0.02,0.05 0,0 -0.02,0.03 0,0 0,0.01 0,0.01l-0.1 0.21c-0.02,0.04 -0.02,0.08 -0.04,0.13 -0.04,0.06 -0.05,0.1 -0.05,0.17 -0.03,0 -0.03,-0.01 -0.05,-0.03 -0.02,-0.03 -0.02,-0.05 -0.03,-0.08l-0.03 -0.09c-0.01,-0.06 0.01,0.03 -0.01,-0.02l-0.15 -0.38c-0.02,-0.04 -0.02,-0.09 -0.01,-0.13l0.07 -0.01c0.01,0 0.01,0 0.01,-0.01 0,0 0.01,0 0.01,0l-0.02 -0.05c-0.05,-0.02 -0.36,-0.02 -0.39,0.01 -0.06,0.06 0.05,0.06 0.09,0.06 0.07,0.08 0.03,0.1 0.08,0.19l0.03 0.06c0,0.02 0,0.02 0,0.04 0.02,0.09 0.01,0.03 0.04,0.09l0.01 0.01c0,0.01 0.01,0.01 0.01,0.01 0.01,0.03 0,-0.01 0.01,0.03 0.02,0.06 -0.01,0.01 0.04,0.11 0,0 0,0.01 0,0.01 0,0 0,0.01 0.01,0.01 0,0 0,0.01 0,0.01 0,0 0,0 0,0.01 0,0 0.01,0 0.01,0.01 0.04,0.07 0.07,0.21 0.1,0.27l0.01 0.02c0.02,0.03 0.01,0.06 0.01,0.09 0.06,0.03 0.02,-0.01 0.05,0.05l0.1 0 0.04 -0.2c0.01,-0.02 0,0 0.01,-0.03 0.01,-0.02 0.01,-0.01 0.02,-0.03 0,-0.01 0,-0.01 0,-0.01l0.01 -0.02c0.02,-0.02 0,0.01 0.01,-0.02 0.02,-0.04 0,-0.04 0.02,-0.08l0.05 -0.07c0.02,-0.03 0.02,-0.09 0.04,-0.13l0.13 -0.3c0.02,-0.03 0.02,-0.06 0.02,-0.1l0.1 -0.05 0 -0.06 -0.34 0z"/>
  <path class="fil3" d="M3.49 21.73l0.01 0.16 0.06 0c0.01,-0.09 0.01,-0.08 0.04,-0.15l0.24 0 0 0.88c-0.1,0.01 -0.08,0 -0.11,0.03 -0.03,0.03 -0.03,0.03 -0.02,0.09l0.45 0c0.01,-0.04 0.01,-0.04 0,-0.06l-0.05 -0.05 -0.09 -0.01 0 -0.9c0.08,-0.01 0.05,0 0.1,0.01 0.12,0.03 0.09,-0.02 0.16,0.04l0.03 0.12 0.06 0 0.01 -0.25 -0.89 0 0 0.09z"/>
  <path class="fil3" d="M0 21.73l0 0.16 0.07 0c0.02,-0.18 -0.01,-0.15 0.28,-0.15l0 0.88c-0.02,0.01 -0.05,0.01 -0.06,0.01 -0.03,0 -0.03,-0.01 -0.06,0.03 -0.02,0.03 0,-0.01 -0.01,0.02 -0.01,0.03 -0.01,0.03 0,0.06l0.45 0c0.01,-0.08 -0.01,-0.06 -0.05,-0.11l-0.1 0 0 -0.89c0.13,0 0.23,-0.02 0.27,0.03l0.01 0.02c0.01,0.03 0.01,0.06 0.01,0.09l0.07 0.01 0 -0.25 -0.88 0 0 0.09z"/>
  <path class="fil3" d="M22.19 21.72c0.01,0.15 0,0.7 0,0.91 -0.04,0 -0.06,-0.01 -0.09,0.01l-0.05 0.04c0.02,0.02 0.01,0.01 0.02,0.02 0,0 0.03,0.03 0.03,0.03 0.01,0 0,0 0.02,0.01l0.39 0 0 -0.11 -0.13 0 0 -0.84c0,-0.05 0.01,-0.06 0.04,-0.07 0.08,-0.02 0.08,0.03 0.09,-0.05 0,-0.03 -0.02,-0.03 -0.08,-0.03l-0.37 0 0.03 0.06c0.03,0.02 0.06,0.02 0.1,0.02z"/>
  <path class="fil3" d="M11.37 21.64l-0.01 0.07 0.14 0.01 0 0.91c-0.01,0 -0.05,0 -0.06,0 -0.05,0.01 -0.02,0 -0.04,0.02 0,0 -0.01,0 -0.01,0 -0.03,0.03 -0.03,0.04 -0.02,0.09l0.45 0c0,-0.04 0.01,-0.04 0,-0.06 -0.01,-0.02 0,0 -0.02,-0.02 -0.01,-0.01 -0.02,-0.02 -0.02,-0.03l-0.1 0 -0.01 -0.87c0.01,-0.02 0.04,-0.03 0.06,-0.04 0.03,-0.01 0.06,0 0.09,-0.01l0 -0.07 -0.45 0z"/>
  <path class="fil3" d="M15.71 21.64l0 0.07 0.13 0.01 0 0.91c-0.01,0 -0.04,0 -0.06,0 -0.04,0 -0.06,0.02 -0.07,0.05 -0.01,0.03 0,0.03 0,0.06l0.45 0c0.01,-0.04 0.01,-0.04 0,-0.06 -0.01,-0.02 0,0 -0.02,-0.02 0,-0.01 -0.02,-0.02 -0.02,-0.03l-0.1 0 0 -0.91 0.14 -0.01 0 -0.07 -0.45 0z"/>
  <path class="fil3" d="M19.97 21.71c0.1,0.01 0.08,0.01 0.15,0.03l0 0.84 -0.05 0.04 -0.1 0.01 0 0.11 0.4 0c0.04,-0.02 0,0 0.03,-0.03 0.04,-0.03 0.01,0.01 0.03,-0.03 0,0 -0.02,-0.01 -0.02,-0.02 0,0 0,0 0,0 -0.03,-0.03 -0.01,-0.03 -0.12,-0.03l-0.01 -0.07c0,0 0,0 0,-0.01l-0.01 -0.01c-0.01,0 -0.01,0 -0.01,0 0.05,-0.04 0.03,0.02 0.03,-0.05l0 -0.77c0.05,0 0.09,0.01 0.12,-0.04 0.02,-0.02 0.02,0.02 0.02,-0.04l-0.45 0 -0.01 0.07z"/>
 </g>
</svg>
