<?xml version="1.0" encoding="UTF-8"?>
<!DOCTYPE svg PUBLIC "-//W3C//DTD SVG 1.0//EN" "http://www.w3.org/TR/2001/REC-SVG-20010904/DTD/svg10.dtd">
<!-- Creator: CorelDRAW 2018 (64-Bit) -->
<svg xmlns="http://www.w3.org/2000/svg" xml:space="preserve" width="10.3062mm" height="10.3142mm" version="1.0" style="shape-rendering:geometricPrecision; text-rendering:geometricPrecision; image-rendering:optimizeQuality; fill-rule:evenodd; clip-rule:evenodd"
viewBox="0 0 82.64 82.71"
 xmlns:xlink="http://www.w3.org/1999/xlink">
 <defs>
  <style type="text/css">
   <![CDATA[
    .fil1 {fill:#FEFEFE}
    .fil0 {fill:red}
   ]]>
  </style>
 </defs>
 <g id="Layer_x0020_1">
  <metadata id="CorelCorpID_0Corel-Layer"/>
  <g id="_1984858970160">
   <g>
    <path class="fil0" d="M-0 61.67l0 0c0.05,1.84 0.07,3.68 0.37,5.51 0.33,1.93 0.8,3.81 1.69,5.57 1.21,2.37 2.87,4.37 4.97,6.01 1.51,1.17 3.15,2.11 4.97,2.7 2.66,0.86 5.4,1.18 8.17,1.2 1.73,0.01 3.47,0.05 5.2,0.05 12.6,-0.05 25.2,0.09 37.8,-0.08 1.67,-0.02 3.32,-0.23 4.96,-0.53 3.14,-0.58 5.92,-1.92 8.3,-4.04 2.77,-2.47 4.64,-5.5 5.49,-9.15 0.55,-2.39 0.69,-4.81 0.71,-7.24l0 -0.48c0,-0.19 -0.07,-41.29 -0.08,-41.83 -0.02,-1.49 -0.13,-2.97 -0.41,-4.44 -0.34,-1.79 -0.82,-3.53 -1.68,-5.15 -0.9,-1.71 -2.04,-3.25 -3.44,-4.59 -2.15,-2.06 -4.62,-3.51 -7.51,-4.29 -2.61,-0.69 -5.26,-0.85 -7.94,-0.85 -0.01,-0.01 -0.01,-0.03 -0.01,-0.04l-40.52 0c0,0.01 0,0.03 -0,0.04 -1.52,0.03 -3.04,0.02 -4.55,0.2 -1.66,0.21 -3.3,0.52 -4.86,1.1 -2.47,0.91 -4.61,2.34 -6.45,4.23 -2.08,2.15 -3.54,4.64 -4.32,7.54 -0.69,2.58 -0.84,5.22 -0.85,7.88l-0.03 40.69zm0 0l0 0 0 0z"/>
   </g>
   <path class="fil1" d="M42.79 64.14l-13.55 -0.25c-4.39,-0.09 -8.79,0.09 -13.09,-0.81 -6.54,-1.34 -7.01,-7.89 -7.49,-13.39 -0.67,-7.73 -0.41,-15.6 0.85,-23.26 0.71,-4.3 3.51,-6.87 7.85,-7.15 14.63,-1.01 29.35,-0.89 43.95,-0.42 1.54,0.04 3.09,0.28 4.61,0.55 7.5,1.32 7.69,8.74 8.17,14.99 0.48,6.32 0.28,12.67 -0.65,18.94 -0.74,5.19 -2.17,9.55 -8.17,9.97 -7.52,0.55 -14.87,0.99 -22.42,0.85 0,-0.03 -0.04,-0.03 -0.06,-0.03l0 0zm-7.97 -13.15c5.67,-3.26 11.23,-6.46 16.87,-9.69 -5.68,-3.26 -11.23,-6.46 -16.87,-9.69l0 19.38z"/>
  </g>
 </g>
</svg>
