<?xml version="1.0" encoding="UTF-8"?>
<!DOCTYPE svg PUBLIC "-//W3C//DTD SVG 1.0//EN" "http://www.w3.org/TR/2001/REC-SVG-20010904/DTD/svg10.dtd">
<!-- Creator: CorelDRAW 2018 (64-Bit) -->
<svg xmlns="http://www.w3.org/2000/svg" xml:space="preserve" width="576px" height="697px" version="1.0" style="shape-rendering:geometricPrecision; text-rendering:geometricPrecision; image-rendering:optimizeQuality; fill-rule:evenodd; clip-rule:evenodd"
viewBox="0 0 244.04 295.06"
 xmlns:xlink="http://www.w3.org/1999/xlink">
 <defs>
  <style type="text/css">
   <![CDATA[
    .fil1 {fill:#95D1D2}
    .fil0 {fill:#4187C6}
   ]]>
  </style>
 </defs>
 <g id="Layer_x0020_1">
  <metadata id="CorelCorpID_0Corel-Layer"/>
  <path class="fil0" d="M86.86 56.48c0,-19.25 15.91,-35.16 35.16,-35.16 19.25,0 35.15,15.91 35.15,35.16l0 16.71 -70.31 0 0 -16.71zm32.39 -56.48c24.37,0 43.5,10.89 53.86,32.47 6.92,14.41 5.38,24.93 5.38,40.72l38.61 0c3.73,0 7.16,3.61 8.32,6.67 0.86,2.27 15.77,165.51 16.48,178.3 0.54,9.62 7.48,36.9 -6.93,36.9l-225.9 0c-14.53,0 -7.34,-27.67 -6.92,-37.47 0.74,-17.23 15.66,-176.19 16.54,-178.24 1.15,-2.65 4.87,-6.16 8.24,-6.16l38.61 0 0 -19.6c0,-26.56 24.34,-52.29 53.71,-53.59zm-80.79 94.51l27.08 0c0,14 -3.06,29.39 10.95,29.39 13.36,0 10.37,-17.23 10.37,-29.39l70.31 0 0 19.02c0,13.56 21.32,13.97 21.32,0l0 -19.02 27.09 0 16.13 179.22 -199.39 0 16.14 -179.22z"/>
  <path class="fil1" d="M38.46 94.51l27.08 0c0,14 -3.06,29.39 10.95,29.39 13.36,0 10.37,-17.23 10.37,-29.39l70.31 0 0 19.02c0,13.56 21.32,13.97 21.32,0l0 -19.02 27.09 0 16.13 179.22 -199.39 0 16.14 -179.22z"/>
 </g>
</svg>
