<?xml version="1.0" encoding="UTF-8"?>
<!DOCTYPE svg PUBLIC "-//W3C//DTD SVG 1.0//EN" "http://www.w3.org/TR/2001/REC-SVG-20010904/DTD/svg10.dtd">
<!-- Creator: CorelDRAW 2018 (64-Bit) -->
<svg xmlns="http://www.w3.org/2000/svg" xml:space="preserve" width="9.7474mm" height="9.7474mm" version="1.0" style="shape-rendering:geometricPrecision; text-rendering:geometricPrecision; image-rendering:optimizeQuality; fill-rule:evenodd; clip-rule:evenodd"
viewBox="0 0 92.77 92.77"
 xmlns:xlink="http://www.w3.org/1999/xlink">
 <defs>
  <style type="text/css">
   <![CDATA[
    .fil1 {fill:#009DE0}
    .fil0 {fill:#5181B8}
    .fil2 {fill:white}
   ]]>
  </style>
 </defs>
 <g id="Layer_x0020_1">
  <metadata id="CorelCorpID_0Corel-Layer"/>
  <g id="_1984858959056">
   <g>
    <path class="fil0" d="M32.18 0l28.46 0c26,0 32.13,6.18 32.13,32.18l0 28.46c0,26 -6.18,32.13 -32.18,32.13l-28.46 0c-26,0 -32.13,-6.19 -32.13,-32.18l0 -28.46c0,-25.95 6.18,-32.13 32.18,-32.13z"/>
   </g>
   <g>
    <path class="fil1" d="M32.18 0l28.46 0c26,0 32.13,6.18 32.13,32.18l0 28.46c0,26 -6.18,32.13 -32.18,32.13l-28.46 0c-26,0 -32.13,-6.19 -32.13,-32.18l0 -28.46c0,-25.95 6.18,-32.13 32.18,-32.13z"/>
   </g>
   <path id="Logo" class="fil2" d="M75.96 31.94c0.43,-1.45 0,-2.46 -2.03,-2.46l-6.76 0c-1.74,0 -2.51,0.92 -2.95,1.93 0,0 -3.43,8.41 -8.31,13.82 -1.59,1.6 -2.27,2.08 -3.14,2.08 -0.43,0 -1.06,-0.48 -1.06,-1.93l0 -13.43c0,-1.74 -0.48,-2.46 -1.93,-2.46l-10.63 0c-1.06,0 -1.74,0.82 -1.74,1.55 0,1.64 2.42,2.03 2.71,6.57l0 9.95c0,2.17 -0.39,2.56 -1.26,2.56 -2.27,0 -7.88,-8.41 -11.16,-18.07 -0.68,-1.79 -1.3,-2.56 -3.04,-2.56l-6.77 0c-1.93,0 -2.32,0.92 -2.32,1.93 0,1.79 2.27,10.68 10.68,22.42 5.61,8.02 13.48,12.37 20.63,12.37 4.3,0 4.83,-0.97 4.83,-2.61l0 -6.09c0,-1.93 0.39,-2.32 1.79,-2.32 1.01,0 2.71,0.48 6.72,4.35 4.59,4.59 5.36,6.67 7.92,6.67l6.77 0c1.93,0 2.9,-0.97 2.32,-2.85 -0.63,-1.88 -2.8,-4.64 -5.7,-7.92 -1.59,-1.88 -3.96,-3.87 -4.64,-4.88 -1.01,-1.3 -0.72,-1.88 0,-3 0,-0.05 8.26,-11.65 9.08,-15.61l0 0z"/>
  </g>
 </g>
</svg>
